<svg xmlns="http://www.w3.org/2000/svg" width="41.162" height="41.875" viewBox="0 0 41.162 41.875">
  <path id="Path_17980" data-name="Path 17980" d="M295.99,61.365l.646-15.584a3.407,3.407,0,0,0,.8.6l-.253,15.19h.292l.81-14.869a3.405,3.405,0,0,0,3.5-1.276l.262,2.2a8.441,8.441,0,0,0-.64,1.446,44.617,44.617,0,0,0-2.574,11.267,2.972,2.972,0,0,0,.145,1.231h.8a2.292,2.292,0,0,1-.2-1.163,42.217,42.217,0,0,1,2.535-11.089c.5-1.44,1.248-2.772,2.773-2.772h10.253a2.781,2.781,0,0,1,2.773,2.772V56.7h.8a1.479,1.479,0,0,1,1.475,1.474v3.535a1.479,1.479,0,0,1-1.475,1.475H298.629a2.831,2.831,0,0,1-2.66-1.829l.021.008Zm10.93,2.327h6.26v1.074h-6.26V63.691Zm-25.5-15.05h.277V35.565h.013l1.441-4.258h1.2l1.115,3.843-.936,14.04.544.719h6.553l1.337-1.268h.931l-3.38,4.9H284.8l-3.38-4.9Zm.948,0h.714l-.714-6.719v6.719Zm16.689-7.91a2.66,2.66,0,1,0,2.66,2.66,2.66,2.66,0,0,0-2.66-2.66Zm-1.617-.338a3.391,3.391,0,0,1,1.223-.384l-13.536-8.1.3,1.025,12.016,7.458Zm-1.789,3v0a3.4,3.4,0,0,1,1.676-2.934l-11.587-6.431.308,1.061L286,35.86l9.655,7.535Zm.487,22.13h1.074v7.658h-5.859c2.687-1.814,3.914-3.654,4.784-7.658Zm9.492-17.689c-1.227,0-1.828,1.072-2.231,2.231a25.192,25.192,0,0,0-1.533,7.744,2.173,2.173,0,0,0,2.231,2.232h6.474a5.521,5.521,0,0,0,5.546-5.2V50.067a2.239,2.239,0,0,0-2.232-2.231Zm4.39,19.276a2.086,2.086,0,1,1-2.086,2.086,2.086,2.086,0,0,1,2.086-2.086Zm8.147,0a2.086,2.086,0,1,1-2.086,2.086,2.087,2.087,0,0,1,2.086-2.086Zm-16.241,0a2.086,2.086,0,1,1-2.088,2.086,2.086,2.086,0,0,1,2.088-2.086Zm-.432-1.9a4,4,0,0,0-3.984,3.984h0a4,4,0,0,0,3.984,3.984h17.1a4,4,0,0,0,3.984-3.984h0a4,4,0,0,0-3.984-3.984Zm.41,1.04A3.1,3.1,0,0,0,298.69,69.2h0a3.1,3.1,0,0,0,3.218,2.944h16.284A3.1,3.1,0,0,0,321.41,69.2h0a3.1,3.1,0,0,0-3.218-2.944Z" transform="translate(-281.424 -31.307)" fill="#fff" fill-rule="evenodd"/>
</svg>
