<svg xmlns="http://www.w3.org/2000/svg" width="42.879" height="41.552" viewBox="0 0 42.879 41.552">
  <path id="Path_17979" data-name="Path 17979" d="M32.6,36.825h.662l21.215-4.117v-.016h.08l1.991-.386.031-.006h3.757l.105.081,5.83,4.445h.206l1.694,1.192L66.475,39.21H64.151V40.5l.037.082-.037.083V56.277l.037.083-.037.082v7.663h9.632v9.745H46.629V64.105h7.846V39.21H34.417v19.5H33.373V39.21H32.6L30.9,38.017,32.6,36.825ZM33.26,59.3a.445.445,0,0,0-.444.444v1.406a.445.445,0,0,0,.444.444h1.272a.445.445,0,0,0,.444-.444V59.746a.445.445,0,0,0-.444-.444Zm1.29,2.887H33.311v.37a.593.593,0,0,0,.316.494,4.9,4.9,0,0,0,.765.367,1.3,1.3,0,0,1,.316,2.142,1.761,1.761,0,0,1-2.019.192c-.593-.322-.784-.918-.864-.854-.282.225-.092,1.206.588,1.831a2.546,2.546,0,0,0,4.018-2.889c-.442-1.085-1.149-1.14-1.768-1.532a.3.3,0,0,1-.113-.122ZM51.836,73.317l-4.644-4.849v3.464l1.327,1.385Zm7.093,0-8.313-8.679H47.3l8.313,8.679Zm7.092,0-8.313-8.679H54.391L62.7,73.317Zm7.093,0L64.8,64.638H61.483L69.8,73.317Zm.106-7.294-1.327-1.385H68.575l4.645,4.849V66.023ZM56.26,64.105V56.443l-.037-.083.037-.083V40.665l-.037-.083.037-.083V39.21h-.552v24.9Zm.789,0h2.66l-2.66-5.911v5.911Zm3.653,0h2.661V58.2L60.7,64.105ZM54.475,36.825V33.51L37.394,36.825Zm1.233-3.554v3.554h2.206L59.6,33.085H56.662l-.954.185Zm7.655,9.146-2.454,5.452h2.454V42.417Zm0,6.241h-2.64l2.64,5.867V48.658Zm-6.313,5.867,2.641-5.867H57.049v5.867Zm0-6.656H59.5l-2.454-5.452v5.452Zm5.658-8.659h-5l-.617,1.371,3.119,6.93,3.119-6.93-.617-1.371Zm-1.5-5.257L62.5,36.825h2.474l-3.766-2.872Zm.429,2.872-1.428-3.174-1.428,3.174ZM57.265,56.757l2.941,6.533h0l2.941-6.533Zm5.884-.789-2.943-6.538-2.943,6.538Z" transform="translate(-30.904 -32.299)" fill="#fff" fill-rule="evenodd"/>
</svg>
