<svg xmlns="http://www.w3.org/2000/svg" width="10.034" height="19.314" viewBox="0 0 10.034 19.314">
  <path id="Path_4536" data-name="Path 4536" d="M0,10.549V7.123H2.908c.079,0,.064,0,.064-.064V4.62c0-.131,0-.26.006-.391a5.565,5.565,0,0,1,.085-.754A4.583,4.583,0,0,1,3.5,2.153,3.7,3.7,0,0,1,5.3.463a4.807,4.807,0,0,1,1.683-.4c.189-.012.381-.012.572-.01.329,0,.657.014.986.024.177.006.355.014.532.026.258.018.516.04.774.06.064.006.127.014.189.022V3.25H8.319c-.141,0-.282.006-.425.014a2.01,2.01,0,0,0-.524.1,1.118,1.118,0,0,0-.762.768,2.5,2.5,0,0,0-.1.711c0,.738,0,1.475,0,2.211,0,.069-.012.069.069.069h3.3c.03,0,.034.01.03.04-.02.149-.04.3-.058.447s-.038.3-.056.447l-.067.508c-.022.169-.042.339-.064.508s-.044.347-.069.52c-.018.147-.036.292-.056.439s-.04.3-.058.455c-.008.058-.006.058-.062.058H6.582c-.081,0-.073-.008-.073.073V19.3c0,.06,0,.06-.06.06H3.031c-.06,0-.06,0-.06-.06V10.61c0-.06,0-.06-.06-.06H.046A.356.356,0,0,0,0,10.549Z" transform="translate(0 -0.05)" fill="#3286e6"/>
</svg>
