<svg xmlns="http://www.w3.org/2000/svg" width="34.423" height="44.849" viewBox="0 0 34.423 44.849">
  <g id="Group_22062" data-name="Group 22062" transform="translate(-257.736 -243.005)">
    <path id="Path_18006" data-name="Path 18006" d="M291.411,275.928c-1.217-1.958-5.07-4.136-11.437-6.475l-.413-4.062a12.825,12.825,0,0,0,4.387-8.446,16.528,16.528,0,0,1-1.681.331,10.943,10.943,0,0,1-4.006,7.088.8.8,0,0,0-.336.736l.461,4.549c-.1.062-.2.128-.313.183-.085.045-.17.09-.258.129a6.483,6.483,0,0,1-.744.292c-.051.017-.1.035-.148.05a6.951,6.951,0,0,1-3.94,0c-.06-.018-.119-.041-.179-.061a6.6,6.6,0,0,1-.714-.279c-.094-.043-.185-.091-.278-.139s-.2-.119-.3-.178l.463-4.548a.8.8,0,0,0-.338-.737,10.933,10.933,0,0,1-4-7.087,16.712,16.712,0,0,1-1.684-.331,12.839,12.839,0,0,0,4.387,8.445l-.414,4.063c-6.365,2.342-10.219,4.52-11.436,6.474-1.531,2.456-.259,10.366-.109,11.261l.111.666h32.924l.113-.666C291.672,286.293,292.942,278.383,291.411,275.928Zm-23.974,1.412-1.608-4.5c1.371-.625,2.938-1.264,4.682-1.9.017.01.037.018.054.029a8.511,8.511,0,0,0,.967.511l.031.014a8.288,8.288,0,0,0,6.769,0l.034-.016a8.39,8.39,0,0,0,.965-.509c.018-.012.037-.019.055-.029,1.744.64,3.31,1.279,4.681,1.9l-1.609,4.5Zm-7.6-.567a9.719,9.719,0,0,1,3.406-2.642l1.6,4.49v7.633h-5.007C259.363,283.048,258.988,278.141,259.841,276.773Zm30.209,9.481h-5.008v-7.633l1.607-4.49a9.691,9.691,0,0,1,3.4,2.642C290.906,278.141,290.532,283.047,290.05,286.254Z" fill="#fff"/>
    <path id="Path_18007" data-name="Path 18007" d="M274.948,256.091c5.575,0,10.094-.65,10.094-1.45,0-.179-.233-.349-.641-.506v-1.678a9.453,9.453,0,0,0-18.906,0v1.677c-.408.158-.643.328-.643.507C264.852,255.441,269.374,256.091,274.948,256.091Z" fill="#fff"/>
  </g>
</svg>
