<svg xmlns="http://www.w3.org/2000/svg" width="46.594" height="60.706" viewBox="0 0 46.594 60.706">
  <g id="Group_22063" data-name="Group 22063" transform="translate(-257.736 -243.005)">
    <path id="Path_18006" data-name="Path 18006" d="M303.318,282.64c-1.647-2.65-6.863-5.6-15.481-8.764l-.559-5.5c3.147-2.468,5.283-6.614,5.938-11.432a22.372,22.372,0,0,1-2.275.448c-.732,4.127-2.7,7.68-5.422,9.594a1.08,1.08,0,0,0-.455,1l.624,6.157c-.142.084-.277.173-.424.248-.115.061-.23.122-.349.175a8.771,8.771,0,0,1-1.007.4c-.069.023-.133.047-.2.068a9.409,9.409,0,0,1-5.333,0c-.081-.024-.161-.055-.242-.083a8.923,8.923,0,0,1-.966-.378c-.127-.058-.25-.123-.376-.188s-.273-.161-.41-.241l.627-6.156a1.088,1.088,0,0,0-.457-1c-2.723-1.911-4.687-5.463-5.42-9.593a22.617,22.617,0,0,1-2.279-.448c.659,4.821,2.8,8.966,5.938,11.431l-.56,5.5c-8.616,3.17-13.832,6.118-15.479,8.763-2.072,3.324-.351,14.031-.148,15.243l.15.9h44.565l.153-.9C303.671,296.67,305.39,285.963,303.318,282.64Zm-32.451,1.911-2.177-6.086c1.856-.846,3.977-1.711,6.337-2.579.023.014.05.024.073.039a11.527,11.527,0,0,0,1.309.692l.042.019a11.219,11.219,0,0,0,9.162,0l.046-.022a11.347,11.347,0,0,0,1.306-.689c.024-.016.05-.026.074-.039,2.361.866,4.48,1.731,6.336,2.577l-2.178,6.086Zm-10.282-.767c.652-1.046,2.244-2.265,4.61-3.576l2.172,6.077v10.332h-6.777C259.938,292.277,259.431,285.635,260.585,283.784Zm40.89,12.833H294.7V286.285l2.175-6.077c2.366,1.31,3.958,2.53,4.609,3.576C302.634,285.635,302.128,292.276,301.475,296.617Z" transform="translate(0 4.929)" fill="#fff"/>
    <path id="Path_18007" data-name="Path 18007" d="M278.518,260.718c7.546,0,13.663-.88,13.663-1.963,0-.242-.315-.472-.868-.685V255.8a12.8,12.8,0,0,0-25.591,0v2.27c-.552.214-.87.444-.87.686C264.852,259.838,270.973,260.718,278.518,260.718Z" transform="translate(2.516 0)" fill="#fff"/>
  </g>
</svg>
