<svg xmlns="http://www.w3.org/2000/svg" width="53.629" height="67.572" viewBox="0 0 53.629 67.572">
  <g id="Group_22068" data-name="Group 22068" transform="translate(-368.848 -531.269)">
    <g id="Group_22067" data-name="Group 22067" transform="translate(369.498 531.269)">
      <g id="Group_22066" data-name="Group 22066">
        <g id="Group_22064" data-name="Group 22064">
          <path id="Path_18008" data-name="Path 18008" d="M429.578,602.819V605.7h-5.13v-2.884Z" transform="translate(-377.25 -541.362)" fill="none"/>
          <path id="Path_18009" data-name="Path 18009" d="M394.089,605.385v-2.849h10.126v5.708H394.089Z" transform="translate(-372.967 -541.322)" fill="none"/>
          <path id="Path_18010" data-name="Path 18010" d="M374.637,602.819V605.7H369.5v-2.884Z" transform="translate(-369.498 -541.362)" fill="none"/>
          <path id="Path_18011" data-name="Path 18011" d="M421.607,575.826a1.9,1.9,0,1,1-1.91-1.9A1.909,1.909,0,0,1,421.607,575.826Z" transform="translate(-376.312 -537.286)" fill="none"/>
          <path id="Path_18012" data-name="Path 18012" d="M400.248,573.816v3.991h-2.432v-3.991Z" transform="translate(-373.493 -537.271)" fill="none"/>
          <path id="Path_18013" data-name="Path 18013" d="M380.446,575.826a1.9,1.9,0,1,1-1.9-1.9A1.907,1.907,0,0,1,380.446,575.826Z" transform="translate(-370.506 -537.286)" fill="none"/>
          <path id="Path_18014" data-name="Path 18014" d="M398.773,546.756a2.773,2.773,0,0,1,1.964,4.744l-.027.034a2.781,2.781,0,0,1-4.717-2,2.771,2.771,0,0,1,2.78-2.773Z" transform="translate(-373.236 -533.454)" fill="none"/>
          <path id="Path_18015" data-name="Path 18015" d="M395.344,551.681a3.932,3.932,0,0,0,5.548.042l.033-.042a3.944,3.944,0,1,0-5.581-5.574,3.933,3.933,0,0,0,0,5.574Zm-1.459,2.365a5.454,5.454,0,0,1-.409-.369l-.018-.016-.042-.042-.034-.025c-.024-.026-.05-.052-.068-.076a.385.385,0,0,1-.056-.058.625.625,0,0,1-.119-.142,4.258,4.258,0,0,1-.394-.488.377.377,0,0,1-.075-.1c-.044-.068-.085-.125-.126-.185a2.207,2.207,0,0,1-.186-.311c-.024-.041-.05-.082-.074-.125-.009-.009-.009-.009-.009-.016s-.017-.025-.027-.042a.3.3,0,0,1-.041-.084,6.681,6.681,0,0,1,3.632-9.344c.006,0,.015-.009.024-.009.176-.059.36-.118.545-.168.015-.008.04-.008.058-.015s.051-.009.074-.018a1.367,1.367,0,0,1,.194-.041c.074-.018.159-.034.242-.05.159-.027.319-.051.478-.068a1.034,1.034,0,0,1,.159-.008,5.272,5.272,0,0,1,1.041,0,3.579,3.579,0,0,1,.527.058.367.367,0,0,1,.1.017c.027.008.06.008.086.015a7.47,7.47,0,0,1,1.014.269h.008a6.686,6.686,0,0,1,3.276,10.025,6.384,6.384,0,0,1-.813.99,5.794,5.794,0,0,1-.478.428,2.16,2.16,0,0,1-.318.244,1.743,1.743,0,0,1-.234.167,4.78,4.78,0,0,1-.5.3c-.017.016-.024.025-.041.025a4.649,4.649,0,0,1-.545.259,2.688,2.688,0,0,1-.368.143.408.408,0,0,1-.094.033c-.051.017-.1.034-.15.051-.1.034-.2.058-.309.094s-.218.048-.327.074c-.142.025-.283.051-.428.068a3.739,3.739,0,0,1-.428.05c-.159.009-.327.017-.5.017s-.333-.009-.5-.017c-.149-.016-.294-.025-.435-.05a6.477,6.477,0,0,1-1.274-.31l-.009-.009a2.249,2.249,0,0,1-.376-.143,5.968,5.968,0,0,1-.578-.276,5.16,5.16,0,0,1-.537-.327c-.009,0-.017,0-.017-.009-.015-.007-.033-.025-.051-.034a5.166,5.166,0,0,1-.418-.319.072.072,0,0,1-.041-.033Z" transform="translate(-372.595 -532.813)" fill="none"/>
          <path id="Path_18016" data-name="Path 18016" d="M400.263,533.179a1.9,1.9,0,0,1,.551,1.331v5.415l-.551-.109h-.011c-.007,0-.015-.008-.024-.008-.168-.025-.336-.05-.5-.067l-.3-.025c-.167-.008-.336-.017-.5-.017s-.325.009-.484.017a1.728,1.728,0,0,0-.295.025c-.192.017-.386.042-.578.075-.177.026-.353.068-.537.109V534.51a1.9,1.9,0,0,1,1.893-1.885A1.893,1.893,0,0,1,400.263,533.179Z" transform="translate(-373.381 -531.46)" fill="none"/>
          <path id="Path_18017" data-name="Path 18017" d="M407.451,586.27l-7.41-27.669c.153-.009.3-.027.453-.051a.067.067,0,0,1,.042-.009h.018a7.383,7.383,0,0,0,1.232-.3,3.836,3.836,0,0,0,.419-.151,7.6,7.6,0,0,0,1.29-.646c.16-.1.319-.21.469-.31.2-.151.387-.3.571-.47a.325.325,0,0,0,.083-.074c.092-.086.186-.167.277-.261.075-.076.142-.143.21-.218l.051-.051c.092-.108.186-.21.268-.317.041-.043.075-.084.109-.126l7.785,29.078a2.992,2.992,0,0,1-.309,2.3,3.032,3.032,0,0,1-1.834,1.416,3.087,3.087,0,0,1-2.306-.31A3.034,3.034,0,0,1,407.451,586.27Z" transform="translate(-373.807 -534.704)" fill="none"/>
          <path id="Path_18018" data-name="Path 18018" d="M387.322,588.1a3.059,3.059,0,0,1-2.3.31,3.056,3.056,0,0,1-2.146-3.721l7.8-29.136c.015.017.033.041.051.058a3.7,3.7,0,0,0,.3.36.83.83,0,0,0,.126.134.492.492,0,0,0,.067.076,1.118,1.118,0,0,0,.1.109l.033.034h.009c.083.094.177.175.26.261.016.016.034.023.041.033.177.159.353.309.545.453a.027.027,0,0,0,.017.009,7.935,7.935,0,0,0,1.273.771,3.692,3.692,0,0,0,.5.218,2.891,2.891,0,0,0,.411.149c.135.051.277.094.418.135a4.384,4.384,0,0,0,.427.1,4.989,4.989,0,0,0,.513.092c.116.017.234.034.351.041a.015.015,0,0,0,.026,0l-7.41,27.678A3.02,3.02,0,0,1,387.322,588.1Z" transform="translate(-371.371 -534.694)" fill="none"/>
          <path id="Path_18019" data-name="Path 18019" d="M405.936,556.184l.051-.051Z" transform="translate(-374.638 -534.776)" fill="#fff"/>
          <path id="Path_18020" data-name="Path 18020" d="M405.356,556.75a.324.324,0,0,1-.083.074C405.3,556.8,405.332,556.773,405.356,556.75Z" transform="translate(-374.545 -534.863)" fill="#fff"/>
          <path id="Path_18021" data-name="Path 18021" d="M404.726,555.327a6.386,6.386,0,0,0,.813-.989A6.006,6.006,0,0,1,404.726,555.327Z" transform="translate(-374.467 -534.523)" fill="#fff"/>
          <path id="Path_18022" data-name="Path 18022" d="M399.923,558.378l7.41,27.669a3.034,3.034,0,0,0,1.417,1.836,3.087,3.087,0,0,0,2.306.31,3.031,3.031,0,0,0,1.834-1.416,2.992,2.992,0,0,0,.309-2.3l-7.785-29.078c-.034.042-.068.083-.109.126a7.481,7.481,0,0,0,.955-1.485l5.08,18.985,2.986,11.15a4.2,4.2,0,0,1-.419,3.185,4.142,4.142,0,0,1-2.239,1.86,1.873,1.873,0,0,1-.311.1,4.221,4.221,0,0,1-5.147-2.974l-3.57-13.32L399.2,560.181l.478-1.778Z" transform="translate(-373.688 -534.48)" fill="#fff"/>
          <path id="Path_18023" data-name="Path 18023" d="M404.647,555.49a3.829,3.829,0,0,1-.478.428A5.794,5.794,0,0,0,404.647,555.49Z" transform="translate(-374.389 -534.686)" fill="#fff"/>
          <path id="Path_18024" data-name="Path 18024" d="M404.531,557.383c-.149.1-.309.21-.469.31C404.222,557.593,404.382,557.492,404.531,557.383Z" transform="translate(-374.374 -534.953)" fill="#fff"/>
          <path id="Path_18025" data-name="Path 18025" d="M404.117,555.988a2.16,2.16,0,0,1-.318.244A2.16,2.16,0,0,0,404.117,555.988Z" transform="translate(-374.337 -534.756)" fill="#fff"/>
          <path id="Path_18026" data-name="Path 18026" d="M402.94,556.768a4.78,4.78,0,0,0,.5-.3,2.741,2.741,0,0,1-.261.167A2.109,2.109,0,0,1,402.94,556.768Z" transform="translate(-374.215 -534.824)" fill="#fff"/>
          <path id="Path_18027" data-name="Path 18027" d="M402.8,556.846a4.649,4.649,0,0,1-.545.259A4.649,4.649,0,0,0,402.8,556.846Z" transform="translate(-374.119 -534.877)" fill="#fff"/>
          <path id="Path_18028" data-name="Path 18028" d="M402.072,558.647c.142-.052.277-.1.419-.151A3.836,3.836,0,0,1,402.072,558.647Z" transform="translate(-374.093 -535.11)" fill="#fff"/>
          <path id="Path_18029" data-name="Path 18029" d="M402.009,542.548a.572.572,0,0,0,.636-.512l.015-.309v-.143a7.836,7.836,0,0,1,3.973,10.695l-.058-.209a.58.58,0,0,0-1.1-.084,4.473,4.473,0,0,1-.344.553,6.687,6.687,0,0,0-3.276-10.025Z" transform="translate(-374.063 -532.724)" fill="#fff"/>
          <path id="Path_18030" data-name="Path 18030" d="M401.813,557.315a.408.408,0,0,1-.094.033A.408.408,0,0,0,401.813,557.315Z" transform="translate(-374.043 -534.943)" fill="#fff"/>
          <path id="Path_18031" data-name="Path 18031" d="M401.184,557.506c.108-.035.209-.059.309-.094C401.393,557.446,401.292,557.48,401.184,557.506Z" transform="translate(-373.968 -534.957)" fill="#fff"/>
          <path id="Path_18032" data-name="Path 18032" d="M400.638,558.973a7.6,7.6,0,0,0,1.232-.3A7.383,7.383,0,0,1,400.638,558.973Z" transform="translate(-373.891 -535.135)" fill="#fff"/>
          <path id="Path_18033" data-name="Path 18033" d="M400.733,557.607c-.142.025-.283.051-.428.068C400.449,557.658,400.591,557.632,400.733,557.607Z" transform="translate(-373.844 -534.984)" fill="#fff"/>
          <path id="Path_18034" data-name="Path 18034" d="M400.778,541a.028.028,0,0,0-.024-.008C400.763,540.988,400.771,541,400.778,541Z" transform="translate(-373.907 -532.64)" fill="#fff"/>
          <path id="Path_18035" data-name="Path 18035" d="M400.668,542.354a6.194,6.194,0,0,1,1.014.269A7.47,7.47,0,0,0,400.668,542.354Z" transform="translate(-373.895 -532.833)" fill="#fff"/>
          <path id="Path_18036" data-name="Path 18036" d="M400.61,559.022a.067.067,0,0,0-.042.009A.351.351,0,0,0,400.61,559.022Z" transform="translate(-373.881 -535.184)" fill="#fff"/>
          <path id="Path_18037" data-name="Path 18037" d="M400.552,542.333a.367.367,0,0,0-.1-.017.372.372,0,0,1,.092.008Z" transform="translate(-373.865 -532.827)" fill="#fff"/>
          <path id="Path_18038" data-name="Path 18038" d="M399.807,557.736a3.739,3.739,0,0,0,.428-.05A3.372,3.372,0,0,1,399.807,557.736Z" transform="translate(-373.774 -534.995)" fill="#fff"/>
          <path id="Path_18039" data-name="Path 18039" d="M400.118,540.906l-.3-.025Z" transform="translate(-373.775 -532.625)" fill="#fff"/>
          <path id="Path_18040" data-name="Path 18040" d="M402.09,557.761c-.143.05-.277.1-.419.151a7.6,7.6,0,0,1-1.232.3h-.018a.351.351,0,0,1-.042.009c-.149.024-.3.041-.453.051l-.242.025.1-.393a.742.742,0,0,0,.034-.186.589.589,0,0,0-.589-.585c.168,0,.337-.009.5-.017a3.372,3.372,0,0,0,.428-.05c.144-.017.286-.043.428-.068.109-.026.218-.051.327-.074s.209-.059.309-.094c.052-.016.1-.034.15-.051a.408.408,0,0,0,.094-.033,2.68,2.68,0,0,0,.368-.143,4.639,4.639,0,0,0,.545-.259c.017,0,.024-.009.041-.025a2.1,2.1,0,0,0,.242-.134,2.742,2.742,0,0,0,.261-.167,1.743,1.743,0,0,0,.234-.167,2.156,2.156,0,0,0,.318-.244,3.835,3.835,0,0,0,.478-.428,6.006,6.006,0,0,0,.813-.989,4.473,4.473,0,0,0,.344-.553.58.58,0,0,1,1.1.084l.058.209a7.479,7.479,0,0,1-.955,1.485c-.082.107-.176.209-.268.317l-.051.051c-.068.076-.135.143-.21.218-.091.094-.185.175-.277.261-.024.023-.058.049-.083.074-.185.167-.37.319-.571.47-.149.109-.309.21-.469.31A7.6,7.6,0,0,1,402.09,557.761Z" transform="translate(-373.692 -534.375)" fill="#fff"/>
          <path id="Path_18041" data-name="Path 18041" d="M399.752,542.244a5.2,5.2,0,0,0-.522-.026A5.2,5.2,0,0,1,399.752,542.244Z" transform="translate(-373.692 -532.813)" fill="#fff"/>
          <path id="Path_18042" data-name="Path 18042" d="M399.145,542.218a5.164,5.164,0,0,0-.519.026A5.164,5.164,0,0,1,399.145,542.218Z" transform="translate(-373.607 -532.813)" fill="#fff"/>
          <path id="Path_18043" data-name="Path 18043" d="M399.125,557.764a.589.589,0,0,1,.589.585.742.742,0,0,1-.034.186l-.1.393c-.15,0-.3.009-.454.009s-.342-.009-.509-.016l-.109-.42-.018-.16a.575.575,0,0,1,.581-.569Z" transform="translate(-373.588 -535.006)" fill="#fff"/>
          <path id="Path_18044" data-name="Path 18044" d="M399.123,560.9l-.486-1.786c.168.008.342.016.509.016s.3-.009.454-.009Z" transform="translate(-373.608 -535.197)" fill="#fff"/>
          <path id="Path_18045" data-name="Path 18045" d="M398.619,540.881a1.782,1.782,0,0,0-.295.025A1.728,1.728,0,0,1,398.619,540.881Z" transform="translate(-373.564 -532.625)" fill="#fff"/>
          <path id="Path_18046" data-name="Path 18046" d="M398.574,557.736c-.149-.016-.294-.025-.435-.05C398.281,557.711,398.425,557.719,398.574,557.736Z" transform="translate(-373.538 -534.995)" fill="#fff"/>
          <path id="Path_18047" data-name="Path 18047" d="M398.363,542.257c-.159.017-.319.041-.478.068C398.044,542.3,398.194,542.274,398.363,542.257Z" transform="translate(-373.502 -532.819)" fill="#fff"/>
          <path id="Path_18048" data-name="Path 18048" d="M397.915,559.032c.116.017.234.024.351.041C398.149,559.065,398.031,559.049,397.915,559.032Z" transform="translate(-373.507 -535.185)" fill="#fff"/>
          <path id="Path_18049" data-name="Path 18049" d="M397.6,542.386a1.986,1.986,0,0,1,.242-.05C397.762,542.351,397.677,542.368,397.6,542.386Z" transform="translate(-373.463 -532.83)" fill="#fff"/>
          <path id="Path_18050" data-name="Path 18050" d="M397.571,542.394a1.376,1.376,0,0,0-.194.041C397.445,542.419,397.512,542.4,397.571,542.394Z" transform="translate(-373.431 -532.838)" fill="#fff"/>
          <path id="Path_18051" data-name="Path 18051" d="M397.365,542.442c-.023.009-.051.009-.074.018C397.314,542.451,397.342,542.451,397.365,542.442Z" transform="translate(-373.419 -532.845)" fill="#fff"/>
          <path id="Path_18052" data-name="Path 18052" d="M396.821,558.808c.143.034.285.076.427.1A4.383,4.383,0,0,1,396.821,558.808Z" transform="translate(-373.352 -535.154)" fill="#fff"/>
          <path id="Path_18053" data-name="Path 18053" d="M400.613,534.319a1.887,1.887,0,0,0-1.9-1.885,1.9,1.9,0,0,0-1.893,1.885v5.415a7.239,7.239,0,0,0-1.172.4c-.126-1.827.009-3.99.009-5.818a3.063,3.063,0,0,1,3.057-3.05,3.059,3.059,0,0,1,2.164.9,3.019,3.019,0,0,1,.9,2.152v5.81a7.941,7.941,0,0,0-1.165-.4Z" transform="translate(-373.18 -531.269)" fill="#fff"/>
          <path id="Path_18054" data-name="Path 18054" d="M397.133,542.481c-.186.051-.369.109-.545.168C396.764,542.59,396.948,542.532,397.133,542.481Z" transform="translate(-373.319 -532.851)" fill="#fff"/>
          <path id="Path_18055" data-name="Path 18055" d="M396.334,558.651c.135.051.277.094.418.135C396.611,558.745,396.469,558.7,396.334,558.651Z" transform="translate(-373.284 -535.132)" fill="#fff"/>
          <path id="Path_18056" data-name="Path 18056" d="M396.645,557.315l.009.009Z" transform="translate(-373.327 -534.943)" fill="#fff"/>
          <path id="Path_18057" data-name="Path 18057" d="M396.267,558.626a2.89,2.89,0,0,1-.411-.149A3.333,3.333,0,0,0,396.267,558.626Z" transform="translate(-373.216 -535.107)" fill="#fff"/>
          <path id="Path_18058" data-name="Path 18058" d="M400.554,547.376a2.779,2.779,0,1,0-.035,3.966l.027-.034a2.771,2.771,0,0,0,.009-3.931Zm-1.972,5.919a3.952,3.952,0,0,1,0-7.9,3.945,3.945,0,0,1,2.792,6.738l-.033.042A3.933,3.933,0,0,1,398.582,553.295Z" transform="translate(-373.044 -533.261)" fill="#fff"/>
          <path id="Path_18059" data-name="Path 18059" d="M401.771,541.934a.572.572,0,0,1-.636.512l-.151-.034h-.008a6.194,6.194,0,0,0-1.014-.269c-.026-.008-.058-.008-.086-.015l-.008-.009a.372.372,0,0,0-.092-.008,3.587,3.587,0,0,0-.527-.058,5.285,5.285,0,0,0-1.041,0,1.026,1.026,0,0,0-.159.008c-.168.017-.319.041-.478.068a1.986,1.986,0,0,0-.242.05c-.059.009-.126.025-.194.041-.023.009-.051.009-.074.018s-.044.008-.058.016c-.185.051-.369.109-.545.168-.01,0-.018.009-.024.009a.6.6,0,0,1-.722-.362.515.515,0,0,1-.027-.159c-.006-.134-.023-.277-.023-.419a7.24,7.24,0,0,1,1.172-.4c.184-.041.36-.083.537-.109.192-.033.387-.058.578-.075a1.781,1.781,0,0,1,.295-.025c.159-.008.327-.017.484-.017s.337.009.5.017l.3.025c.167.017.336.042.5.067a.028.028,0,0,1,.024.008h.011l.551.109a7.939,7.939,0,0,1,1.165.4v.143Z" transform="translate(-373.189 -532.622)" fill="#fff"/>
          <path id="Path_18060" data-name="Path 18060" d="M395.534,556.827a5.975,5.975,0,0,0,.578.276A3.724,3.724,0,0,1,395.534,556.827Z" transform="translate(-373.171 -534.874)" fill="#fff"/>
          <path id="Path_18061" data-name="Path 18061" d="M394.909,556.446a5.171,5.171,0,0,0,.537.327,3.088,3.088,0,0,1-.286-.159A2.374,2.374,0,0,1,394.909,556.446Z" transform="translate(-373.083 -534.821)" fill="#fff"/>
          <path id="Path_18062" data-name="Path 18062" d="M394.83,556.4c.018.009.035.027.051.034A.17.17,0,0,1,394.83,556.4Z" transform="translate(-373.071 -534.814)" fill="#fff"/>
          <path id="Path_18063" data-name="Path 18063" d="M394.343,556.026a5.166,5.166,0,0,0,.418.319A3.743,3.743,0,0,1,394.343,556.026Z" transform="translate(-373.003 -534.761)" fill="#fff"/>
          <path id="Path_18064" data-name="Path 18064" d="M394.3,555.988a.072.072,0,0,0,.041.033A.053.053,0,0,1,394.3,555.988Z" transform="translate(-372.996 -534.756)" fill="#fff"/>
          <path id="Path_18065" data-name="Path 18065" d="M393.787,557.325c.2.143.4.277.612.4s.435.251.661.369A7.928,7.928,0,0,1,393.787,557.325Z" transform="translate(-372.924 -534.945)" fill="#fff"/>
          <path id="Path_18066" data-name="Path 18066" d="M393.808,555.558a5.468,5.468,0,0,0,.409.369A5.468,5.468,0,0,1,393.808,555.558Z" transform="translate(-372.927 -534.695)" fill="#fff"/>
          <path id="Path_18067" data-name="Path 18067" d="M393.787,555.539l.018.016C393.8,555.548,393.787,555.548,393.787,555.539Z" transform="translate(-372.924 -534.693)" fill="#fff"/>
          <path id="Path_18068" data-name="Path 18068" d="M393.554,555.3a.388.388,0,0,0,.056.058A.406.406,0,0,1,393.554,555.3Z" transform="translate(-372.891 -534.66)" fill="#fff"/>
          <path id="Path_18069" data-name="Path 18069" d="M393.132,556.788c.177.159.362.309.545.453C393.485,557.1,393.309,556.947,393.132,556.788Z" transform="translate(-372.832 -534.869)" fill="#fff"/>
          <path id="Path_18070" data-name="Path 18070" d="M392.957,554.572a4.255,4.255,0,0,0,.394.488A3.553,3.553,0,0,1,392.957,554.572Z" transform="translate(-372.807 -534.556)" fill="#fff"/>
          <path id="Path_18071" data-name="Path 18071" d="M392.781,556.446c.083.094.168.175.26.261C392.958,556.621,392.864,556.54,392.781,556.446Z" transform="translate(-372.782 -534.821)" fill="#fff"/>
          <path id="Path_18072" data-name="Path 18072" d="M392.849,554.426a.859.859,0,0,1-.126-.185C392.764,554.3,392.805,554.358,392.849,554.426Z" transform="translate(-372.774 -534.51)" fill="#fff"/>
          <path id="Path_18073" data-name="Path 18073" d="M392.716,556.389a1.122,1.122,0,0,1-.1-.109.766.766,0,0,0,.142.143h-.009Z" transform="translate(-372.759 -534.797)" fill="#fff"/>
          <path id="Path_18074" data-name="Path 18074" d="M392.391,556.036a.908.908,0,0,0,.126.134A.83.83,0,0,1,392.391,556.036Z" transform="translate(-372.727 -534.763)" fill="#fff"/>
          <path id="Path_18075" data-name="Path 18075" d="M392.421,553.733c.024.043.05.084.074.125A.432.432,0,0,1,392.421,553.733Z" transform="translate(-372.732 -534.438)" fill="#fff"/>
          <path id="Path_18076" data-name="Path 18076" d="M392.38,553.665c.009.017.017.025.027.042A.127.127,0,0,1,392.38,553.665Z" transform="translate(-372.726 -534.428)" fill="#fff"/>
          <path id="Path_18077" data-name="Path 18077" d="M392.341,555.977a3.7,3.7,0,0,1-.3-.36A3.7,3.7,0,0,0,392.341,555.977Z" transform="translate(-372.678 -534.704)" fill="#fff"/>
          <path id="Path_18078" data-name="Path 18078" d="M391.981,555.549c.015.017.033.041.051.058C392.014,555.59,392,555.566,391.981,555.549Z" transform="translate(-372.67 -534.694)" fill="#fff"/>
          <path id="Path_18079" data-name="Path 18079" d="M392.607,554.28a.377.377,0,0,0,.075.1,3.559,3.559,0,0,0,.394.488.625.625,0,0,0,.119.142.4.4,0,0,0,.056.058c.018.024.044.05.068.076l.034.025.042.042c0,.009.009.009.018.016a5.454,5.454,0,0,0,.409.369h.009a.053.053,0,0,0,.041.033,3.743,3.743,0,0,0,.418.319.173.173,0,0,0,.051.034c0,.009.009.009.017.009a2.365,2.365,0,0,0,.251.168,3.088,3.088,0,0,0,.286.159,3.721,3.721,0,0,0,.578.276,2.249,2.249,0,0,0,.376.143l.009.009a6.477,6.477,0,0,0,1.274.31c.142.025.286.033.435.05.168.009.334.017.5.017l-.056.008a.575.575,0,0,0-.581.569l.018.16.109.42a2.136,2.136,0,0,1-.243-.027.015.015,0,0,1-.026,0c-.118-.017-.235-.024-.351-.041a4.987,4.987,0,0,1-.513-.092c-.142-.025-.283-.067-.427-.1s-.283-.084-.418-.135a3.333,3.333,0,0,1-.411-.149,3.677,3.677,0,0,1-.5-.218c-.226-.119-.451-.235-.661-.369s-.412-.259-.612-.4a.027.027,0,0,1-.017-.009c-.183-.143-.368-.294-.545-.453-.007-.01-.025-.017-.041-.033-.092-.086-.177-.167-.26-.261a.766.766,0,0,1-.142-.143.491.491,0,0,1-.067-.076.908.908,0,0,1-.126-.134,3.7,3.7,0,0,1-.3-.36c-.018-.017-.035-.041-.051-.058a7.78,7.78,0,0,1-.837-1.367l.058-.21a.592.592,0,0,1,.711-.419.626.626,0,0,1,.368.293.3.3,0,0,0,.041.084.127.127,0,0,0,.027.042c0,.008,0,.008.009.016a.433.433,0,0,0,.074.125,2.207,2.207,0,0,0,.186.311A.861.861,0,0,0,392.607,554.28Z" transform="translate(-372.532 -534.364)" fill="#fff"/>
          <path id="Path_18080" data-name="Path 18080" d="M393.225,544.082a6.652,6.652,0,0,0-1.208,7.8.626.626,0,0,0-.368-.293.592.592,0,0,0-.711.419l-.058.21a7.823,7.823,0,0,1,4-10.62c0,.142.017.285.023.419a.514.514,0,0,0,.027.159.6.6,0,0,0,.722.362A6.613,6.613,0,0,0,393.225,544.082Z" transform="translate(-372.404 -532.725)" fill="#fff"/>
          <path id="Path_18081" data-name="Path 18081" d="M389.678,586.33a4.218,4.218,0,0,1-5.147,2.974,1.286,1.286,0,0,1-.176-.058,4.2,4.2,0,0,1-2.792-5.087l2.985-11.15,5.106-19.051a7.78,7.78,0,0,0,.837,1.367l-7.8,29.136a3.056,3.056,0,0,0,2.146,3.721,3.059,3.059,0,0,0,2.3-.31,3.019,3.019,0,0,0,1.424-1.836l7.41-27.678a2.122,2.122,0,0,0,.243.027l.486,1.786-3.446,12.839Z" transform="translate(-371.18 -534.47)" fill="#fff"/>
        </g>
        <g id="Group_22065" data-name="Group 22065" transform="translate(0 36.545)">
          <path id="Path_18082" data-name="Path 18082" d="M384.674,594.252l-.227.678-2.37,7.134" transform="translate(-371.272 -576.699)" fill="none" stroke="#fff" stroke-linecap="round" stroke-linejoin="round" stroke-width="1.3"/>
          <path id="Path_18083" data-name="Path 18083" d="M413.4,594.037l.268.821,2.39,7.209" transform="translate(-375.691 -576.669)" fill="none" stroke="#fff" stroke-linecap="round" stroke-linejoin="round" stroke-width="1.3"/>
          <path id="Path_18084" data-name="Path 18084" d="M412.708,576.138h4.377" transform="translate(-375.593 -574.144)" fill="none" stroke="#fff" stroke-linecap="round" stroke-linejoin="round" stroke-width="1.3"/>
          <path id="Path_18085" data-name="Path 18085" d="M400.647,576.138h2.63" transform="translate(-373.892 -574.144)" fill="none" stroke="#fff" stroke-linecap="round" stroke-linejoin="round" stroke-width="1.3"/>
          <path id="Path_18086" data-name="Path 18086" d="M394.5,576.138h2.849" transform="translate(-373.025 -574.144)" fill="none" stroke="#fff" stroke-linecap="round" stroke-linejoin="round" stroke-width="1.3"/>
          <path id="Path_18087" data-name="Path 18087" d="M380.67,576.138H385.2" transform="translate(-371.074 -574.144)" fill="none" stroke="#fff" stroke-linecap="round" stroke-linejoin="round" stroke-width="1.3"/>
          <path id="Path_18088" data-name="Path 18088" d="M378.542,573.924a1.9,1.9,0,1,1-1.9,1.9A1.906,1.906,0,0,1,378.542,573.924Z" transform="translate(-370.506 -573.832)" fill="none" stroke="#fff" stroke-linecap="round" stroke-linejoin="round" stroke-width="1.3"/>
          <path id="Path_18089" data-name="Path 18089" d="M419.7,573.924a1.9,1.9,0,1,1-1.893,1.9A1.908,1.908,0,0,1,419.7,573.924Z" transform="translate(-376.312 -573.832)" fill="none" stroke="#fff" stroke-linecap="round" stroke-linejoin="round" stroke-width="1.3"/>
          <path id="Path_18090" data-name="Path 18090" d="M397.816,575.81v-1.994h2.432v3.991h-2.432Z" transform="translate(-373.493 -573.816)" fill="none" stroke="#fff" stroke-linecap="round" stroke-linejoin="round" stroke-width="1.3"/>
          <path id="Path_18091" data-name="Path 18091" d="M394.089,605.385v-2.849h10.126v5.708H394.089Z" transform="translate(-372.967 -577.868)" fill="none" stroke="#fff" stroke-linecap="round" stroke-linejoin="round" stroke-width="1.3"/>
          <path id="Path_18092" data-name="Path 18092" d="M424.448,602.819h5.13V605.7h-5.13v-2.884Z" transform="translate(-377.25 -577.908)" fill="none" stroke="#fff" stroke-linecap="round" stroke-linejoin="round" stroke-width="1.3"/>
          <path id="Path_18093" data-name="Path 18093" d="M405.878,605.662l9.229-.67,6.721-.494" transform="translate(-374.63 -578.144)" fill="none" stroke="#fff" stroke-linecap="round" stroke-linejoin="round" stroke-width="1.3"/>
          <path id="Path_18094" data-name="Path 18094" d="M374.637,602.819H369.5V605.7h5.139v-2.884Z" transform="translate(-369.498 -577.908)" fill="none" stroke="#fff" stroke-linecap="round" stroke-linejoin="round" stroke-width="1.3"/>
          <path id="Path_18095" data-name="Path 18095" d="M391.431,605.662l-10.385-.762-5.565-.4" transform="translate(-370.342 -578.144)" fill="none" stroke="#fff" stroke-linecap="round" stroke-linejoin="round" stroke-width="1.3"/>
        </g>
      </g>
    </g>
  </g>
</svg>
