<svg xmlns="http://www.w3.org/2000/svg" width="39.648" height="41.179" viewBox="0 0 39.648 41.179">
  <g id="Group_22129" data-name="Group 22129" transform="translate(-493.704 -140.77)">
    <g id="Group_22128" data-name="Group 22128" transform="translate(494.204 141.27)">
      <g id="Group_22127" data-name="Group 22127">
        <g id="Group_22126" data-name="Group 22126">
          <path id="Path_18147" data-name="Path 18147" d="M498.793,194.869a1.651,1.651,0,0,1,0,2.328l-.021.021a1.643,1.643,0,0,1-2.786-1.185,1.637,1.637,0,0,1,1.639-1.643h.009a1.578,1.578,0,0,1,.479.074,1.77,1.77,0,0,1,.291.117s.009,0,.015,0a2.109,2.109,0,0,1,.258.179A.49.49,0,0,1,498.793,194.869Z" transform="translate(-495.023 -165.682)" fill="none" stroke="#fff" stroke-linecap="round" stroke-linejoin="round" stroke-width="1.3"/>
          <path id="Path_18148" data-name="Path 18148" d="M561.009,154.6a2.6,2.6,0,0,1,0,3.681l-.031.032a2.552,2.552,0,0,1-1.327.69v-.442a.481.481,0,0,0-.484-.474,1.658,1.658,0,0,0,1.143-.459l.021-.021a1.658,1.658,0,0,0,.479-1.169A1.646,1.646,0,0,0,558,155.283a1.56,1.56,0,0,0-.275.364.565.565,0,0,0,.031-.068.477.477,0,0,0-.263-.623l-.358-.142a2.228,2.228,0,0,1,.189-.211,2.6,2.6,0,0,1,3.681,0Z" transform="translate(-523.126 -147.047)" fill="none" stroke="#fff" stroke-width="1"/>
          <path id="Path_18149" data-name="Path 18149" d="M560.906,193.411a2.6,2.6,0,0,1,0,3.687l-.031.026a2.577,2.577,0,0,1-1.811.738,2.609,2.609,0,0,1-2.149-1.138l.4-.175a.472.472,0,0,0,.242-.632,1.655,1.655,0,0,0,1.507.985,1.638,1.638,0,0,0,1.142-.464l.021-.021a1.653,1.653,0,0,0,0-2.328,1.636,1.636,0,0,0-1.163-.479.485.485,0,0,0,.484-.479v-.437A2.641,2.641,0,0,1,560.906,193.411Z" transform="translate(-523.023 -164.902)" fill="none" stroke="#fff" stroke-width="1"/>
          <path id="Path_18150" data-name="Path 18150" d="M560.656,156.1a1.637,1.637,0,0,1,.479,1.159,1.658,1.658,0,0,1-.479,1.169l-.021.021a1.658,1.658,0,0,1-1.142.459h-.038c-.069-.006-.137-.011-.206-.022h-.015a1.66,1.66,0,0,1-.221-.052,1.469,1.469,0,0,1-.417-.2,1.173,1.173,0,0,1-.189-.142c-.058-.052-.116-.11-.169-.168a1.857,1.857,0,0,1-.252-.4,1.769,1.769,0,0,1-.137-.669,1.606,1.606,0,0,1,.205-.795,1.56,1.56,0,0,1,.275-.364,1.653,1.653,0,0,1,2.327,0Z" transform="translate(-523.453 -147.866)" fill="none" stroke="#fff" stroke-linecap="round" stroke-linejoin="round" stroke-width="1.3"/>
          <path id="Path_18151" data-name="Path 18151" d="M560.656,194.869a1.653,1.653,0,0,1,0,2.328l-.021.021a1.64,1.64,0,0,1-2.307-.021,1.662,1.662,0,0,1-.343-.5c-.01-.026-.021-.052-.031-.084l-.032-.089c-.015-.053-.031-.105-.043-.158a1.821,1.821,0,0,1-.031-.332,1.646,1.646,0,0,1,2.807-1.164Z" transform="translate(-523.453 -165.682)" fill="none" stroke="#fff" stroke-linecap="round" stroke-linejoin="round" stroke-width="1.3"/>
          <path id="Path_18152" data-name="Path 18152" d="M559.157,192.654v.437a.485.485,0,0,1-.484.479,1.638,1.638,0,0,0-1.644,1.643,2.2,2.2,0,0,0,.025.322l.005.01c.011.052.028.1.043.158a.8.8,0,0,0,.032.089c.011.032.022.058.031.084a.472.472,0,0,1-.242.632l-.4.175a2.6,2.6,0,0,1-.384-.875l-.016-.084c-.016-.084-.032-.163-.041-.247a1.988,1.988,0,0,1-.017-.263,2.593,2.593,0,0,1,.768-1.843,2.31,2.31,0,0,1,.211-.19c.052-.043.115-.084.174-.126a2.363,2.363,0,0,1,.59-.295c.057-.021.115-.043.173-.059.017,0,.032-.01.054-.015l.158-.032a2.4,2.4,0,0,1,.479-.048A2.453,2.453,0,0,1,559.157,192.654Z" transform="translate(-522.633 -164.862)" fill="none" stroke="#fff" stroke-width="1"/>
          <path id="Path_18153" data-name="Path 18153" d="M560.967,163.4v15.832a2.45,2.45,0,0,0-.484-.048,2.4,2.4,0,0,0-.479.048V163.391a2.4,2.4,0,0,0,.479.048A2.936,2.936,0,0,0,560.967,163.4Z" transform="translate(-524.443 -151.436)" fill="none" stroke="#fff" stroke-width="1"/>
          <path id="Path_18154" data-name="Path 18154" d="M559.216,161.1v.442a2.935,2.935,0,0,1-.484.043,2.4,2.4,0,0,1-.479-.048,1.467,1.467,0,0,1-.211-.048,2.426,2.426,0,0,1-.727-.326c-.052-.037-.11-.075-.158-.111a2.149,2.149,0,0,1-.238-.205l-.026-.026a2.924,2.924,0,0,1-.31-.369,2.573,2.573,0,0,1-.39-.879l.4-.173a.479.479,0,0,1,.632.248,1.855,1.855,0,0,0,.252.4c.028.031.058.068.091.1a.982.982,0,0,0,.078.069,1.505,1.505,0,0,0,.606.338,1.1,1.1,0,0,0,.221.052h.015a.919.919,0,0,0,.206.022h.038A.481.481,0,0,1,559.216,161.1Z" transform="translate(-522.692 -149.583)" fill="none" stroke="#fff" stroke-width="1"/>
          <path id="Path_18156" data-name="Path 18156" d="M560.44,161.665c.069.011.137.016.206.022A.92.92,0,0,1,560.44,161.665Z" transform="translate(-524.643 -150.643)" fill="none" stroke="#fff" stroke-width="1"/>
          <path id="Path_18157" data-name="Path 18157" d="M560,161.569a1.654,1.654,0,0,0,.221.052A1.1,1.1,0,0,1,560,161.569Z" transform="translate(-524.443 -150.599)" fill="none" stroke="#fff" stroke-width="1"/>
          <path id="Path_18158" data-name="Path 18158" d="M546.612,162.468V178.3a1.192,1.192,0,0,0-.158.032c-.022,0-.037.01-.054.015a1.074,1.074,0,0,0-.173.059,2.365,2.365,0,0,0-.59.295,1.588,1.588,0,0,0-.174.126,2.3,2.3,0,0,0-.211.19,2.594,2.594,0,0,0-.768,1.843,1.988,1.988,0,0,0,.017.263,1.55,1.55,0,0,0,.057.331L532.6,186.742a1.453,1.453,0,0,0-.152-.227,1.068,1.068,0,0,0-.175-.205.37.37,0,0,0-.058-.069,1.547,1.547,0,0,0-.137-.121,1.46,1.46,0,0,0-.21-.163,1.567,1.567,0,0,0-.232-.148,1.87,1.87,0,0,0-.18-.09,2.241,2.241,0,0,0-.6-.189V167.6l14.079-6.22a2.928,2.928,0,0,0,.31.369.067.067,0,0,0,.026.026,2.147,2.147,0,0,0,.238.205l.158.111a2.427,2.427,0,0,0,.727.326A1.469,1.469,0,0,0,546.612,162.468Z" transform="translate(-511.051 -150.513)" fill="none" stroke="#fff" stroke-linecap="round" stroke-linejoin="round" stroke-width="1.3"/>
          <path id="Path_18159" data-name="Path 18159" d="M559.613,163.3a1.469,1.469,0,0,0,.211.048A1.469,1.469,0,0,1,559.613,163.3Z" transform="translate(-524.263 -151.395)" fill="none" stroke="#fff" stroke-width="1"/>
          <path id="Path_18160" data-name="Path 18160" d="M559.87,192.694l-.158.032A1.194,1.194,0,0,1,559.87,192.694Z" transform="translate(-524.309 -164.902)" fill="none" stroke="#fff" stroke-width="1"/>
          <path id="Path_18161" data-name="Path 18161" d="M559.466,192.781c-.058.016-.116.038-.173.059A1.069,1.069,0,0,1,559.466,192.781Z" transform="translate(-524.116 -164.942)" fill="none" stroke="#fff" stroke-width="1"/>
          <path id="Path_18162" data-name="Path 18162" d="M559.071,161.086a1.47,1.47,0,0,0,.417.2,1.505,1.505,0,0,1-.606-.338A1.173,1.173,0,0,0,559.071,161.086Z" transform="translate(-523.927 -150.311)" fill="none" stroke="#fff" stroke-width="1"/>
          <path id="Path_18163" data-name="Path 18163" d="M558.738,160.8a.981.981,0,0,1-.078-.069c-.033-.031-.063-.068-.091-.1C558.622,160.691,558.68,160.749,558.738,160.8Z" transform="translate(-523.783 -150.168)" fill="none" stroke="#fff" stroke-width="1"/>
          <path id="Path_18164" data-name="Path 18164" d="M557.106,155.785a.477.477,0,0,1,.263.623.575.575,0,0,1-.031.068.475.475,0,0,1-.59.2l-.459-.185a2.647,2.647,0,0,1,.459-.848Z" transform="translate(-522.736 -147.875)" fill="none" stroke="#fff" stroke-width="1"/>
          <path id="Path_18165" data-name="Path 18165" d="M557.976,162.493c.048.037.105.074.158.111Z" transform="translate(-523.511 -151.023)" fill="none" stroke="#fff" stroke-width="1"/>
          <path id="Path_18166" data-name="Path 18166" d="M558.053,193.435c-.059.042-.122.084-.174.126A1.586,1.586,0,0,1,558.053,193.435Z" transform="translate(-523.466 -165.243)" fill="none" stroke="#fff" stroke-width="1"/>
          <path id="Path_18167" data-name="Path 18167" d="M557.985,198.337l.032.089A.788.788,0,0,1,557.985,198.337Z" transform="translate(-523.515 -167.496)" fill="none" stroke="#fff" stroke-width="1"/>
          <path id="Path_18168" data-name="Path 18168" d="M557.88,197.763l-.005-.01a2.208,2.208,0,0,1-.025-.322A1.821,1.821,0,0,0,557.88,197.763Z" transform="translate(-523.453 -167.079)" fill="none" stroke="#fff" stroke-width="1"/>
          <path id="Path_18169" data-name="Path 18169" d="M557.235,157.183a1.606,1.606,0,0,0-.205.795,1.77,1.77,0,0,0,.137.669.479.479,0,0,0-.632-.248l-.4.173a2.715,2.715,0,0,1-.069-.6,2.535,2.535,0,0,1,.121-.779l.459.185A.475.475,0,0,0,557.235,157.183Z" transform="translate(-522.633 -148.583)" fill="none" stroke="#fff" stroke-width="1"/>
          <path id="Path_18170" data-name="Path 18170" d="M557.488,162.065l.026.026A.067.067,0,0,1,557.488,162.065Z" transform="translate(-523.287 -150.827)" fill="none" stroke="#fff" stroke-width="1"/>
          <path id="Path_18171" data-name="Path 18171" d="M535.306,147.018l11.634,4.661a2.648,2.648,0,0,0-.459.848l-11.534-4.619A2.532,2.532,0,0,0,535.306,147.018Z" transform="translate(-512.928 -143.912)" fill="none" stroke="#fff" stroke-width="1"/>
          <path id="Path_18172" data-name="Path 18172" d="M546.42,199.406l-12.009,5.3a2.406,2.406,0,0,0-.332-.895l11.956-5.283A2.6,2.6,0,0,0,546.42,199.406Z" transform="translate(-512.529 -167.585)" fill="none" stroke="#fff" stroke-width="1"/>
          <path id="Path_18173" data-name="Path 18173" d="M544.53,160.634l-14.079,6.22v-.311a.49.49,0,0,0-.29-.437l-.195-.09,14.174-6.262A2.572,2.572,0,0,0,544.53,160.634Z" transform="translate(-510.639 -149.765)" fill="none" stroke="#fff" stroke-width="1"/>
          <path id="Path_18174" data-name="Path 18174" d="M520.527,148.625l11.534,4.619a2.537,2.537,0,0,0-.121.779,2.719,2.719,0,0,0,.069.6l-14.174,6.262-14.267-6.3a2.535,2.535,0,0,0,.149-.854,2.619,2.619,0,0,0-.043-.457l12.434-4.693a1.533,1.533,0,0,0,.148.22c0,.006.01.011.01.011a1.509,1.509,0,0,0,.175.206.416.416,0,0,0,.052.057h0a2.144,2.144,0,0,0,.38.316c.069.048.143.09.217.132s.146.073.225.106.128.052.189.073l.111.032c.058.016.117.031.175.042a.186.186,0,0,0,.037.011,3.56,3.56,0,0,0,.5.048c.079,0,.154,0,.231-.011a2.527,2.527,0,0,0,1.012-.306,1.2,1.2,0,0,0,.184-.11,2.932,2.932,0,0,0,.384-.311l.033-.021a.111.111,0,0,0,.021-.026A2.347,2.347,0,0,0,520.527,148.625Z" transform="translate(-498.507 -144.628)" fill="none" stroke="#fff" stroke-linecap="round" stroke-linejoin="round" stroke-width="1.3"/>
          <path id="Path_18175" data-name="Path 18175" d="M556.138,198.165l.016.084a1.55,1.55,0,0,1-.057-.331C556.106,198,556.122,198.081,556.138,198.165Z" transform="translate(-522.647 -167.303)" fill="none" stroke="#fff" stroke-width="1"/>
          <path id="Path_18176" data-name="Path 18176" d="M531.268,143.871a2.629,2.629,0,0,1-.046.505l-.406-.163a.486.486,0,0,0-.62.268.2.2,0,0,0-.016.032,1.652,1.652,0,0,0,.132-.643,1.644,1.644,0,0,0-3.287,0,1.637,1.637,0,0,0,.121.622.112.112,0,0,1-.021-.043.473.473,0,0,0-.611-.279l-.411.153a2.6,2.6,0,1,1,5.166-.453Z" transform="translate(-508.844 -141.27)" fill="none" stroke="#fff" stroke-width="1"/>
          <path id="Path_18177" data-name="Path 18177" d="M530.851,146.654l.406.163a2.535,2.535,0,0,1-.358.89,3.116,3.116,0,0,1-.332.422c-.016.016-.037.032-.053.047a2.94,2.94,0,0,1-.384.311c-.057.037-.12.075-.184.11a2.528,2.528,0,0,1-1.012.306c-.073.007-.152.011-.231.011a2.015,2.015,0,0,1-.264-.016,1.8,1.8,0,0,1-.236-.031.189.189,0,0,1-.037-.011c-.058-.01-.117-.026-.175-.042l-.111-.032c-.062-.021-.124-.048-.189-.073s-.152-.069-.225-.106-.149-.084-.217-.132a2.144,2.144,0,0,1-.38-.316.268.268,0,0,1-.056-.057,1.518,1.518,0,0,1-.175-.206s-.01,0-.01-.011a2.182,2.182,0,0,1-.148-.22,2.426,2.426,0,0,1-.343-.9l.411-.153a.473.473,0,0,1,.611.279.112.112,0,0,0,.021.043,1.647,1.647,0,0,0,.075.163c.01.021.026.048.037.069.032.048.058.089.089.132a1.793,1.793,0,0,0,.153.174,1.457,1.457,0,0,0,.157.137.919.919,0,0,0,.074.058.022.022,0,0,0,.017,0,.223.223,0,0,0,.057.037.906.906,0,0,0,.1.058,1.035,1.035,0,0,0,.168.073.445.445,0,0,0,.11.042.141.141,0,0,0,.048.011.989.989,0,0,0,.175.042h.031a1.162,1.162,0,0,0,.236.022c.058,0,.111-.006.163-.01a.679.679,0,0,0,.143-.022,1.544,1.544,0,0,0,.353-.105.2.2,0,0,0,.09-.042c.01-.005.022-.005.025-.01a.879.879,0,0,0,.149-.084c.026-.021.052-.037.079-.063a.952.952,0,0,0,.136-.122h.005l.011-.021.005,0a.8.8,0,0,0,.173-.205,1.431,1.431,0,0,0,.18-.31.2.2,0,0,1,.016-.032A.486.486,0,0,1,530.851,146.654Z" transform="translate(-508.88 -143.71)" fill="none" stroke="#fff" stroke-width="1"/>
          <path id="Path_18178" data-name="Path 18178" d="M532.692,209.869a2.1,2.1,0,0,1,.043.448,2.626,2.626,0,0,1-.569,1.632h-1.828a1.6,1.6,0,0,0,.937-.448l.022-.021a1.656,1.656,0,0,0,.479-1.164,1.777,1.777,0,0,0-.095-.558.479.479,0,0,0,.611.29Z" transform="translate(-510.81 -172.744)" fill="none" stroke="#fff" stroke-width="1"/>
          <path id="Path_18179" data-name="Path 18179" d="M532.531,208.172l-.4.179a.479.479,0,0,1-.611-.29c-.005-.011-.011-.026-.015-.037a1.01,1.01,0,0,0-.064-.137.771.771,0,0,0-.052-.1,1.473,1.473,0,0,0-.1-.152c-.005-.011-.015-.017-.021-.027a1.247,1.247,0,0,0-.132-.152c-.022-.021-.048-.042-.069-.064a.471.471,0,0,0-.052-.042c-.033-.025-.063-.052-.1-.078a1.32,1.32,0,0,0-.179-.111l-.089-.041a1,1,0,0,0-.185-.069,1.1,1.1,0,0,0-.173-.042,1.415,1.415,0,0,0-.3-.031.483.483,0,0,0,.473-.48v-.431a2.243,2.243,0,0,1,.6.189,1.872,1.872,0,0,1,.18.09,2.354,2.354,0,0,1,.232.148,2.151,2.151,0,0,1,.21.163c.069.063.137.126.2.19a2.4,2.4,0,0,1,.175.205,2.211,2.211,0,0,1,.152.227A2.406,2.406,0,0,1,532.531,208.172Z" transform="translate(-510.648 -171.047)" fill="none" stroke="#fff" stroke-width="1"/>
          <path id="Path_18180" data-name="Path 18180" d="M534.334,149.087a3.106,3.106,0,0,0,.332-.422A2.34,2.34,0,0,1,534.334,149.087Z" transform="translate(-512.646 -144.668)" fill="none" stroke="#fff" stroke-width="1"/>
          <path id="Path_18181" data-name="Path 18181" d="M534.288,149.445a.112.112,0,0,1-.02.026l-.033.021C534.252,149.477,534.272,149.461,534.288,149.445Z" transform="translate(-512.601 -145.027)" fill="none" stroke="#fff" stroke-width="1"/>
          <path id="Path_18182" data-name="Path 18182" d="M533.951,208.114a2.2,2.2,0,0,0-.152-.227A1.458,1.458,0,0,1,533.951,208.114Z" transform="translate(-512.4 -171.884)" fill="none" stroke="#fff" stroke-width="1"/>
          <path id="Path_18183" data-name="Path 18183" d="M533.651,207.712a2.4,2.4,0,0,0-.175-.205A1.072,1.072,0,0,1,533.651,207.712Z" transform="translate(-512.252 -171.71)" fill="none" stroke="#fff" stroke-width="1"/>
          <path id="Path_18184" data-name="Path 18184" d="M531.131,144.686a1.651,1.651,0,0,1-.132.643,1.431,1.431,0,0,1-.18.31,1.286,1.286,0,0,1-.173.205l-.005,0c.005.005-.005.016-.017.021a.953.953,0,0,1-.136.122,1.834,1.834,0,0,1-.228.148s-.015,0-.025.01a.5.5,0,0,1-.09.042,1.544,1.544,0,0,1-.353.105.68.68,0,0,1-.143.022c-.052,0-.1.01-.163.01a1.2,1.2,0,0,1-.236-.022h-.031a.989.989,0,0,1-.175-.042.141.141,0,0,1-.048-.011.489.489,0,0,1-.11-.042,1.039,1.039,0,0,1-.168-.074.476.476,0,0,1-.1-.058.223.223,0,0,1-.057-.037.324.324,0,0,1-.091-.063,1.455,1.455,0,0,1-.157-.137,1.8,1.8,0,0,1-.153-.174c-.031-.043-.057-.084-.089-.132a.535.535,0,0,1-.037-.069,1.678,1.678,0,0,1-.075-.163,1.636,1.636,0,0,1-.121-.622,1.6,1.6,0,0,1,.479-1.159,1.647,1.647,0,0,1,2.808,1.159Z" transform="translate(-509.664 -142.085)" fill="none" stroke="#fff" stroke-linecap="round" stroke-linejoin="round" stroke-width="1.3"/>
          <path id="Path_18185" data-name="Path 18185" d="M528.44,213.811h1.828c-.064.074-.121.143-.19.211l-.032.026a2.594,2.594,0,0,1-3.65-.026,2.233,2.233,0,0,1-.189-.211h1.816a1.278,1.278,0,0,0,.211.017A1.21,1.21,0,0,0,528.44,213.811Z" transform="translate(-508.911 -174.607)" fill="none" stroke="#fff" stroke-width="1"/>
          <path id="Path_18186" data-name="Path 18186" d="M533.184,150.217c.063-.036.127-.073.184-.11A1.2,1.2,0,0,1,533.184,150.217Z" transform="translate(-512.118 -145.331)" fill="none" stroke="#fff" stroke-width="1"/>
          <path id="Path_18187" data-name="Path 18187" d="M533.252,207.277a.376.376,0,0,1,.058.069c-.058-.063-.126-.126-.2-.19A1.565,1.565,0,0,1,533.252,207.277Z" transform="translate(-512.086 -171.548)" fill="none" stroke="#fff" stroke-width="1"/>
          <path id="Path_18188" data-name="Path 18188" d="M533.2,147.847a.8.8,0,0,1-.173.205A1.293,1.293,0,0,0,533.2,147.847Z" transform="translate(-512.046 -144.293)" fill="none" stroke="#fff" stroke-width="1"/>
          <path id="Path_18189" data-name="Path 18189" d="M532.937,207.018a2.157,2.157,0,0,0-.21-.163A1.457,1.457,0,0,1,532.937,207.018Z" transform="translate(-511.908 -171.41)" fill="none" stroke="#fff" stroke-width="1"/>
          <path id="Path_18190" data-name="Path 18190" d="M532.988,148.257c.011,0,.022-.016.017-.021l-.011.021Z" transform="translate(-512.028 -144.471)" fill="none" stroke="#fff" stroke-width="1"/>
          <path id="Path_18191" data-name="Path 18191" d="M530.1,208.836a1.775,1.775,0,0,1,.095.558,1.656,1.656,0,0,1-.479,1.164l-.022.021a1.6,1.6,0,0,1-.937.447h-.416a1.661,1.661,0,0,1-.953-.468,1.643,1.643,0,0,1-.485-1.164,1.692,1.692,0,0,1,.069-.474.406.406,0,0,0,.043-.084,1.538,1.538,0,0,1,.238-.443,1.72,1.72,0,0,1,.168-.189,1.781,1.781,0,0,1,.19-.158h0a1.582,1.582,0,0,1,.2-.122s.009,0,.015-.01c.069-.032.143-.058.21-.084.011,0,.017-.006.022-.006a1.469,1.469,0,0,1,.221-.052c.009,0,.021-.006.031,0a.985.985,0,0,1,.216-.021h.037a1.415,1.415,0,0,1,.3.031,1.1,1.1,0,0,1,.173.042,1,1,0,0,1,.185.069l.089.041a1.314,1.314,0,0,1,.179.111c.037.026.068.053.1.078a.231.231,0,0,1,.052.042c.021.022.047.043.069.064a1.989,1.989,0,0,1,.132.152c.005.01.015.016.021.027a1.473,1.473,0,0,1,.1.152.762.762,0,0,1,.052.1.611.611,0,0,1,.064.137C530.093,208.809,530.1,208.825,530.1,208.836Z" transform="translate(-509.233 -171.822)" fill="none" stroke="#fff" stroke-linecap="round" stroke-linejoin="round" stroke-width="1.3"/>
          <path id="Path_18192" data-name="Path 18192" d="M532.74,209.573a.614.614,0,0,0-.064-.137A1.009,1.009,0,0,1,532.74,209.573Z" transform="translate(-511.884 -172.596)" fill="none" stroke="#fff" stroke-width="1"/>
          <path id="Path_18193" data-name="Path 18193" d="M532.543,148.5c-.028.026-.054.042-.079.063a.875.875,0,0,1-.149.084A1.836,1.836,0,0,0,532.543,148.5Z" transform="translate(-511.718 -144.593)" fill="none" stroke="#fff" stroke-width="1"/>
          <path id="Path_18194" data-name="Path 18194" d="M532.53,206.729a2.362,2.362,0,0,0-.232-.148A1.563,1.563,0,0,1,532.53,206.729Z" transform="translate(-511.71 -171.284)" fill="none" stroke="#fff" stroke-width="1"/>
          <path id="Path_18195" data-name="Path 18195" d="M532.495,209.122a1.473,1.473,0,0,0-.1-.152A1.473,1.473,0,0,1,532.495,209.122Z" transform="translate(-511.755 -172.382)" fill="none" stroke="#fff" stroke-width="1"/>
          <path id="Path_18196" data-name="Path 18196" d="M532.244,208.79a1.989,1.989,0,0,0-.132-.152A1.247,1.247,0,0,1,532.244,208.79Z" transform="translate(-511.625 -172.23)" fill="none" stroke="#fff" stroke-width="1"/>
          <path id="Path_18197" data-name="Path 18197" d="M532.145,206.5a1.865,1.865,0,0,0-.18-.09A1.865,1.865,0,0,1,532.145,206.5Z" transform="translate(-511.557 -171.208)" fill="none" stroke="#fff" stroke-width="1"/>
          <path id="Path_18198" data-name="Path 18198" d="M532.1,148.834a.508.508,0,0,0,.09-.042A.2.2,0,0,1,532.1,148.834Z" transform="translate(-511.62 -144.727)" fill="none" stroke="#fff" stroke-width="1"/>
          <path id="Path_18199" data-name="Path 18199" d="M531.941,208.484a.228.228,0,0,0-.052-.042A.473.473,0,0,1,531.941,208.484Z" transform="translate(-511.522 -172.139)" fill="none" stroke="#fff" stroke-width="1"/>
          <path id="Path_18200" data-name="Path 18200" d="M531.185,149.087a.68.68,0,0,0,.143-.022A.68.68,0,0,1,531.185,149.087Z" transform="translate(-511.199 -144.852)" fill="none" stroke="#fff" stroke-width="1"/>
          <path id="Path_18201" data-name="Path 18201" d="M531.3,208.056l-.089-.041Z" transform="translate(-511.209 -171.943)" fill="none" stroke="#fff" stroke-width="1"/>
          <path id="Path_18202" data-name="Path 18202" d="M530.884,150.888c.079,0,.158,0,.231-.011C531.037,150.883,530.963,150.888,530.884,150.888Z" transform="translate(-511.061 -145.685)" fill="none" stroke="#fff" stroke-width="1"/>
          <path id="Path_18203" data-name="Path 18203" d="M530.447,149.084a1.2,1.2,0,0,0,.236.022A1.16,1.16,0,0,1,530.447,149.084Z" transform="translate(-510.86 -144.861)" fill="none" stroke="#fff" stroke-width="1"/>
          <path id="Path_18204" data-name="Path 18204" d="M530.4,150.868a2.015,2.015,0,0,0,.264.016A2.067,2.067,0,0,1,530.4,150.868Z" transform="translate(-510.836 -145.681)" fill="none" stroke="#fff" stroke-width="1"/>
          <path id="Path_18205" data-name="Path 18205" d="M530.039,206.025v.431a.483.483,0,0,1-.473.48h-.037a.481.481,0,0,1-.459-.48v-.431a2.414,2.414,0,0,1,.48-.048A2.456,2.456,0,0,1,530.039,206.025Z" transform="translate(-510.227 -171.007)" fill="none" stroke="#fff" stroke-width="1"/>
          <path id="Path_18206" data-name="Path 18206" d="M530.855,172.892V190.82c0-.005,0-.005-.009-.005V172.9Z" transform="translate(-511.043 -155.802)" fill="none" stroke="#fff" stroke-width="1"/>
          <path id="Path_18207" data-name="Path 18207" d="M530.039,171.868v.311l-.009.005V190.1s0,0,.009.005a2.455,2.455,0,0,0-.489-.048,2.413,2.413,0,0,0-.48.048V190.1h.006V172.185h-.006v-.317a.486.486,0,0,1,.286-.437l.2-.09.195.09A.49.49,0,0,1,530.039,171.868Z" transform="translate(-510.227 -155.09)" fill="none" stroke="#fff" stroke-width="1"/>
          <path id="Path_18208" data-name="Path 18208" d="M530.716,207.851a1.1,1.1,0,0,0-.173-.042A1.1,1.1,0,0,1,530.716,207.851Z" transform="translate(-510.904 -171.849)" fill="none" stroke="#fff" stroke-width="1"/>
          <path id="Path_18209" data-name="Path 18209" d="M529.959,150.81a1.8,1.8,0,0,0,.236.031A2.059,2.059,0,0,1,529.959,150.81Z" transform="translate(-510.635 -145.654)" fill="none" stroke="#fff" stroke-width="1"/>
          <path id="Path_18210" data-name="Path 18210" d="M530.066,149.006a.991.991,0,0,0,.175.042A.991.991,0,0,1,530.066,149.006Z" transform="translate(-510.685 -144.825)" fill="none" stroke="#fff" stroke-width="1"/>
          <path id="Path_18211" data-name="Path 18211" d="M529.568,213.811h.416a1.21,1.21,0,0,1-.2.017A1.279,1.279,0,0,1,529.568,213.811Z" transform="translate(-510.456 -174.607)" fill="none" stroke="#fff" stroke-width="1"/>
          <path id="Path_18212" data-name="Path 18212" d="M529.773,148.909a.488.488,0,0,0,.11.042A.445.445,0,0,1,529.773,148.909Z" transform="translate(-510.55 -144.781)" fill="none" stroke="#fff" stroke-width="1"/>
          <path id="Path_18213" data-name="Path 18213" d="M515.35,165.986l-.2.09a.486.486,0,0,0-.286.437v.317L500.783,160.6a2.606,2.606,0,0,1-.727.712,2.475,2.475,0,0,1-.937.374v15.837a2.564,2.564,0,0,0-.494-.048,2.741,2.741,0,0,0-.464.042V161.394a2.739,2.739,0,0,0,.464.042,2.6,2.6,0,0,0,1.811-.737l.032-.026a2.549,2.549,0,0,0,.616-.984Z" transform="translate(-496.022 -149.734)" fill="none" stroke="#fff" stroke-width="1"/>
          <path id="Path_18215" data-name="Path 18215" d="M529.735,207.751a.985.985,0,0,0-.216.021A.985.985,0,0,1,529.735,207.751Z" transform="translate(-510.433 -171.822)" fill="none" stroke="#fff" stroke-width="1"/>
          <path id="Path_18216" data-name="Path 18216" d="M529.568,150.712c.058.016.117.031.175.042C529.685,150.743,529.626,150.728,529.568,150.712Z" transform="translate(-510.456 -145.609)" fill="none" stroke="#fff" stroke-width="1"/>
          <path id="Path_18217" data-name="Path 18217" d="M527.755,206.976a.984.984,0,0,0-.216.021c-.01-.006-.022,0-.031,0a1.643,1.643,0,0,0-.221.052c-.005,0-.011.006-.022.006a1.3,1.3,0,0,0-.21.084c-.006.005-.011.01-.015.01a1.106,1.106,0,0,0-.2.122h0a1.033,1.033,0,0,0-.19.158.114.114,0,0,0-.032.026.949.949,0,0,0-.136.163,1.565,1.565,0,0,0-.28.527.486.486,0,0,1-.573.206l-.412-.179a2.424,2.424,0,0,1,.338-.895h.005a2.7,2.7,0,0,1,.326-.432,2.8,2.8,0,0,1,.885-.622h0a1.4,1.4,0,0,1,.243-.09,1.628,1.628,0,0,1,.263-.068h.021v.431A.481.481,0,0,0,527.755,206.976Z" transform="translate(-508.454 -171.047)" fill="none" stroke="#fff" stroke-width="1"/>
          <path id="Path_18218" data-name="Path 18218" d="M527.531,212.02h-1.816a2.562,2.562,0,0,1-.538-2.08l.412.179a.486.486,0,0,0,.573-.206,1.692,1.692,0,0,0-.069.474,1.643,1.643,0,0,0,.485,1.164A1.661,1.661,0,0,0,527.531,212.02Z" transform="translate(-508.419 -172.816)" fill="none" stroke="#fff" stroke-width="1"/>
          <path id="Path_18219" data-name="Path 18219" d="M529.286,148.665a.474.474,0,0,0,.1.058A.9.9,0,0,1,529.286,148.665Z" transform="translate(-510.326 -144.668)" fill="none" stroke="#fff" stroke-width="1"/>
          <path id="Path_18220" data-name="Path 18220" d="M529.274,207.79a1.469,1.469,0,0,0-.221.052A1.643,1.643,0,0,1,529.274,207.79Z" transform="translate(-510.219 -171.84)" fill="none" stroke="#fff" stroke-width="1"/>
          <path id="Path_18221" data-name="Path 18221" d="M529.012,150.518c.065.025.128.052.189.073C529.14,150.57,529.077,150.543,529.012,150.518Z" transform="translate(-510.2 -145.52)" fill="none" stroke="#fff" stroke-width="1"/>
          <path id="Path_18222" data-name="Path 18222" d="M529.1,148.543a.022.022,0,0,1-.017,0,.9.9,0,0,1-.074-.058A.322.322,0,0,0,529.1,148.543Z" transform="translate(-510.2 -144.583)" fill="none" stroke="#fff" stroke-width="1"/>
          <rect id="Rectangle_13130" data-name="Rectangle 13130" width="0.006" height="17.917" transform="translate(18.843 17.095)" fill="none" stroke="#fff" stroke-width="1"/>
          <path id="Path_18223" data-name="Path 18223" d="M529.053,206.055v.005h-.021C529.038,206.06,529.048,206.055,529.053,206.055Z" transform="translate(-510.209 -171.042)" fill="none" stroke="#fff" stroke-width="1"/>
          <path id="Path_18224" data-name="Path 18224" d="M515.68,167.608v17.917s-.015.005-.021.005a1.627,1.627,0,0,0-.263.068,1.4,1.4,0,0,0-.243.09h0a2.45,2.45,0,0,0-.827.553.37.37,0,0,0-.058.069,2.018,2.018,0,0,0-.332.432l-11.945-5.283.017-.084a2.761,2.761,0,0,0,.052-.51,2.613,2.613,0,0,0-.763-1.843,2.587,2.587,0,0,0-.838-.559,2.3,2.3,0,0,0-.263-.1,1.069,1.069,0,0,0-.184-.046l-.073-.016V162.468a2.474,2.474,0,0,0,.937-.374,2.605,2.605,0,0,0,.727-.712Z" transform="translate(-496.837 -150.513)" fill="none" stroke="#fff" stroke-linecap="round" stroke-linejoin="round" stroke-width="1.3"/>
          <path id="Path_18225" data-name="Path 18225" d="M528.834,207.9c-.067.026-.141.052-.21.084A1.3,1.3,0,0,1,528.834,207.9Z" transform="translate(-510.022 -171.889)" fill="none" stroke="#fff" stroke-width="1"/>
          <path id="Path_18226" data-name="Path 18226" d="M528.6,150.322c.072.037.146.073.225.106C528.742,150.4,528.668,150.359,528.6,150.322Z" transform="translate(-510.009 -145.43)" fill="none" stroke="#fff" stroke-width="1"/>
          <path id="Path_18227" data-name="Path 18227" d="M528.194,150.078c.069.048.143.09.217.132C528.337,150.168,528.263,150.126,528.194,150.078Z" transform="translate(-509.824 -145.318)" fill="none" stroke="#fff" stroke-width="1"/>
          <path id="Path_18228" data-name="Path 18228" d="M528.425,208.071a1.586,1.586,0,0,0-.2.122A1.107,1.107,0,0,1,528.425,208.071Z" transform="translate(-509.838 -171.969)" fill="none" stroke="#fff" stroke-width="1"/>
          <path id="Path_18229" data-name="Path 18229" d="M528.339,206.191a1.4,1.4,0,0,0-.243.09A1.4,1.4,0,0,1,528.339,206.191Z" transform="translate(-509.779 -171.105)" fill="none" stroke="#fff" stroke-width="1"/>
          <path id="Path_18230" data-name="Path 18230" d="M528.273,147.661c.032.048.058.089.089.132C528.331,147.75,528.3,147.709,528.273,147.661Z" transform="translate(-509.861 -144.207)" fill="none" stroke="#fff" stroke-width="1"/>
          <path id="Path_18231" data-name="Path 18231" d="M528.205,147.534a.535.535,0,0,0,.037.069C528.231,147.582,528.215,147.555,528.205,147.534Z" transform="translate(-509.829 -144.149)" fill="none" stroke="#fff" stroke-width="1"/>
          <path id="Path_18232" data-name="Path 18232" d="M528.054,208.3a1.783,1.783,0,0,0-.19.158A1.033,1.033,0,0,1,528.054,208.3Z" transform="translate(-509.673 -172.073)" fill="none" stroke="#fff" stroke-width="1"/>
          <path id="Path_18233" data-name="Path 18233" d="M527.721,208.59a1.714,1.714,0,0,0-.168.189.943.943,0,0,1,.136-.163A.113.113,0,0,1,527.721,208.59Z" transform="translate(-509.53 -172.207)" fill="none" stroke="#fff" stroke-width="1"/>
          <path id="Path_18234" data-name="Path 18234" d="M527.335,206.357a2.8,2.8,0,0,0-.885.622.368.368,0,0,1,.058-.069A2.45,2.45,0,0,1,527.335,206.357Z" transform="translate(-509.023 -171.181)" fill="none" stroke="#fff" stroke-width="1"/>
          <path id="Path_18235" data-name="Path 18235" d="M527.387,149.387a.267.267,0,0,0,.056.057h0A.412.412,0,0,1,527.387,149.387Z" transform="translate(-509.454 -145)" fill="none" stroke="#fff" stroke-width="1"/>
          <path id="Path_18236" data-name="Path 18236" d="M527.064,149.006a1.514,1.514,0,0,0,.175.206A1.514,1.514,0,0,1,527.064,149.006Z" transform="translate(-509.305 -144.825)" fill="none" stroke="#fff" stroke-width="1"/>
          <path id="Path_18237" data-name="Path 18237" d="M527.314,208.939a1.538,1.538,0,0,0-.238.443.41.41,0,0,1-.043.084A1.565,1.565,0,0,1,527.314,208.939Z" transform="translate(-509.291 -172.368)" fill="none" stroke="#fff" stroke-width="1"/>
          <path id="Path_18238" data-name="Path 18238" d="M526.772,148.578a2.19,2.19,0,0,0,.148.22A1.543,1.543,0,0,1,526.772,148.578Z" transform="translate(-509.171 -144.628)" fill="none" stroke="#fff" stroke-width="1"/>
          <path id="Path_18239" data-name="Path 18239" d="M515.912,147.817l-12.434,4.693a2.513,2.513,0,0,0-.337-.9l12.429-4.688A2.425,2.425,0,0,0,515.912,147.817Z" transform="translate(-498.311 -143.867)" fill="none" stroke="#fff" stroke-width="1"/>
          <path id="Path_18240" data-name="Path 18240" d="M526.168,207.507a2.7,2.7,0,0,0-.326.432h-.005A2.02,2.02,0,0,1,526.168,207.507Z" transform="translate(-508.741 -171.71)" fill="none" stroke="#fff" stroke-width="1"/>
          <path id="Path_18241" data-name="Path 18241" d="M502.43,195.983l11.945,5.283a2.424,2.424,0,0,0-.338.895l-12-5.3a2.616,2.616,0,0,0-.316-3.313,2.688,2.688,0,0,0-.828-.559,2.586,2.586,0,0,1,.838.559,2.613,2.613,0,0,1,.763,1.843,2.767,2.767,0,0,1-.052.51Z" transform="translate(-497.28 -165.036)" fill="none" stroke="#fff" stroke-width="1"/>
          <path id="Path_18242" data-name="Path 18242" d="M499.371,155.43a2.619,2.619,0,0,1,.043.457,2.536,2.536,0,0,1-.149.854l-.31-.137a.482.482,0,0,0-.632.248,1.618,1.618,0,0,1-.605.711,1.651,1.651,0,0,1-.885.269h-.016a.476.476,0,0,0-.473.474v.142a2.6,2.6,0,0,1-1.369-4.4,2.562,2.562,0,0,1,1.834-.769,2.59,2.59,0,0,1,1.843.769,2.658,2.658,0,0,1,.384.485l-.4.153a.479.479,0,0,0-.284.616,1.678,1.678,0,0,0-.375-.58,1.652,1.652,0,0,0-2.327,0,1.652,1.652,0,0,0,0,2.328,1.611,1.611,0,0,0,1.16.479,1.649,1.649,0,0,0,1.147-.458l.021-.022a1.657,1.657,0,0,0,.375-1.748.484.484,0,0,0,.621.284Z" transform="translate(-494.204 -146.787)" fill="none" stroke="#fff" stroke-width="1"/>
          <path id="Path_18243" data-name="Path 18243" d="M502.868,156.5l-.4.152a.481.481,0,1,1-.338-.9l.4-.153A2.512,2.512,0,0,1,502.868,156.5Z" transform="translate(-497.701 -147.853)" fill="none" stroke="#fff" stroke-width="1"/>
          <path id="Path_18244" data-name="Path 18244" d="M500.772,159.4l.31.137a2.549,2.549,0,0,1-.616.984l-.032.026a2.6,2.6,0,0,1-1.811.737,2.741,2.741,0,0,1-.464-.042V161.1a.476.476,0,0,1,.473-.474h.016a1.652,1.652,0,0,0,.885-.269,1.619,1.619,0,0,0,.605-.711A.482.482,0,0,1,500.772,159.4Z" transform="translate(-496.022 -149.583)" fill="none" stroke="#fff" stroke-width="1"/>
          <path id="Path_18245" data-name="Path 18245" d="M501.231,195.214a2.609,2.609,0,0,1-.449,1.469l-.395-.175a.479.479,0,0,1-.248-.632l.005-.01a1.844,1.844,0,0,0,.1-.311l0-.021a1.908,1.908,0,0,0,.033-.322,1.634,1.634,0,0,0-.485-1.164h-.006a.49.49,0,0,0-.115-.105,1.25,1.25,0,0,0-.258-.179c-.005,0-.011,0-.015,0a1.054,1.054,0,0,0-.291-.117,1.579,1.579,0,0,0-.479-.073h-.009a.481.481,0,0,1-.464-.479v-.443a2.741,2.741,0,0,1,.464-.042,2.565,2.565,0,0,1,.494.048l.073.016c.063.016.126.031.184.046a2.3,2.3,0,0,1,.263.1,2.689,2.689,0,0,1,.828.559A2.592,2.592,0,0,1,501.231,195.214Z" transform="translate(-496.022 -164.862)" fill="none" stroke="#fff" stroke-width="1"/>
          <path id="Path_18246" data-name="Path 18246" d="M498.57,196.544l.395.175a3.153,3.153,0,0,1-.316.374l-.032.026a2.6,2.6,0,1,1-2.275-4.435v.443a.481.481,0,0,0,.464.479,1.646,1.646,0,0,0,0,3.292,1.649,1.649,0,0,0,1.147-.464l.021-.021a1.651,1.651,0,0,0,0-2.328h.007a1.634,1.634,0,0,1,.485,1.164,1.912,1.912,0,0,1-.033.322l0,.021a1.841,1.841,0,0,1-.1.311l-.005.01A.479.479,0,0,0,498.57,196.544Z" transform="translate(-494.204 -164.898)" fill="none" stroke="#fff" stroke-width="1"/>
          <path id="Path_18247" data-name="Path 18247" d="M499.167,156.117a1.657,1.657,0,0,1-.375,1.748l-.021.022a1.648,1.648,0,0,1-1.147.458,1.611,1.611,0,0,1-1.16-.479,1.643,1.643,0,0,1,1.16-2.807,1.659,1.659,0,0,1,1.167.479A1.678,1.678,0,0,1,499.167,156.117Z" transform="translate(-495.023 -147.606)" fill="none" stroke="#fff" stroke-linecap="round" stroke-linejoin="round" stroke-width="1.3"/>
          <path id="Path_18248" data-name="Path 18248" d="M500.488,194.751a1.25,1.25,0,0,1,.258.179A2.1,2.1,0,0,0,500.488,194.751Z" transform="translate(-497.092 -165.848)" fill="none" stroke="#fff" stroke-width="1"/>
          <path id="Path_18249" data-name="Path 18249" d="M500.253,192.77c-.058-.016-.121-.03-.184-.046A1.071,1.071,0,0,1,500.253,192.77Z" transform="translate(-496.899 -164.916)" fill="none" stroke="#fff" stroke-width="1"/>
          <path id="Path_18250" data-name="Path 18250" d="M500.213,194.643a1.771,1.771,0,0,0-.291-.117A1.053,1.053,0,0,1,500.213,194.643Z" transform="translate(-496.832 -165.744)" fill="none" stroke="#fff" stroke-width="1"/>
        </g>
      </g>
    </g>
  </g>
</svg>
