<svg xmlns="http://www.w3.org/2000/svg" width="67.092" height="65.015" viewBox="0 0 67.092 65.015">
  <path id="Path_17979" data-name="Path 17979" d="M33.554,39.381H34.59l33.2-6.441v-.024h.125l3.115-.6.049-.01h.067l5.6,0h.209l.165.126,9.122,6.955h.322l2.65,1.865-2.65,1.866H82.925V45.13l.058.128-.058.13v24.43l.058.13-.058.128V82.066H98V97.315H55.509V82.066H67.785V43.112H36.4V73.622H34.768V43.112H33.554L30.9,41.246l2.65-1.865Zm1.036,35.17a.7.7,0,0,0-.694.694v2.2a.7.7,0,0,0,.694.7h1.99a.7.7,0,0,0,.694-.7v-2.2a.7.7,0,0,0-.694-.694Zm2.018,4.518H34.671v.58a.928.928,0,0,0,.494.773,7.673,7.673,0,0,0,1.2.574,2.035,2.035,0,0,1,.495,3.352,2.756,2.756,0,0,1-3.16.3c-.928-.5-1.227-1.436-1.353-1.336-.442.352-.143,1.887.921,2.864a3.984,3.984,0,0,0,6.286-4.521c-.691-1.7-1.8-1.784-2.766-2.4a.473.473,0,0,1-.176-.191ZM63.657,96.48,56.39,88.893v5.42l2.076,2.167Zm11.1,0L61.748,82.9H56.556L69.563,96.48Zm11.1,0L72.844,82.9H67.654L80.661,96.48Zm11.1,0L83.941,82.9H78.751L91.758,96.48Zm.166-11.413L95.039,82.9H89.848l7.267,7.587v-5.42Zm-26.536-3V70.077l-.058-.13.058-.131V45.389l-.058-.131.058-.13V43.112h-.864V82.066Zm1.235,0h4.162l-4.162-9.249v9.249Zm5.715,0h4.163V72.819l-4.163,9.247ZM67.785,39.381V34.194L41.059,39.381Zm1.929-5.561v5.561h3.452L75.8,33.53H71.207l-1.493.29ZM81.692,48.13l-3.839,8.531h3.839V48.13Zm0,9.766H77.561l4.131,9.179V57.9Zm-9.878,9.179L75.946,57.9H71.814v9.179Zm0-10.414h3.84l-3.84-8.531v8.531Zm8.854-13.548H72.838l-.966,2.146L76.753,56.1l4.881-10.843-.966-2.146Zm-2.351-8.225,2.021,4.493h3.871l-5.892-4.493Zm.671,4.493-2.235-4.966-2.235,4.966ZM72.151,70.568l4.6,10.222h0l4.6-10.222Zm9.206-1.235L76.753,59.1l-4.6,10.231Z" transform="translate(-30.904 -32.299)" fill="#00874c" fill-rule="evenodd"/>
</svg>
