<svg xmlns="http://www.w3.org/2000/svg" width="78.356" height="51.054" viewBox="0 0 78.356 51.054">
  <g id="Group_22240" data-name="Group 22240" transform="translate(-45.559 -45.885)">
    <path id="Path_1" data-name="Path 1" d="M55.96,69.289q-4.917,0-9.834,0c-.19,0-.464.1-.551-.11s.185-.326.316-.466c2.16-2.306,4.31-4.621,6.49-6.908,2.321-2.436,4.656-4.857,6.939-7.329,1.283-1.389,2.629-2.719,3.932-4.09.944-.992,1.852-2.019,2.8-3.008a2.339,2.339,0,0,1,1.878-.862c2.2.073,4.41.023,6.616.025.8,0,.8.006.8.821q0,5.883,0,11.766a1.6,1.6,0,0,1-.532,1.262c-1.162,1.145-2.23,2.384-3.344,3.577-.426.457-.879.89-1.32,1.333-1.1,1.1-2.162,2.232-3.168,3.416a1.563,1.563,0,0,1-1.312.588C62.435,69.276,59.2,69.289,55.96,69.289Z" transform="translate(0 -0.527)" fill="#8e8a25"/>
    <path id="Path_2" data-name="Path 2" d="M372.351,69.444q-4.888,0-9.776,0a1.2,1.2,0,0,1-.987-.34c-1.9-2.053-3.826-4.079-5.708-6.146-.843-.926-1.8-1.742-2.576-2.731a1.236,1.236,0,0,1-.32-.812c.007-3.62,0-7.24.01-10.86,0-.481.093-.962.12-1.444.018-.314.179-.421.467-.421q3.8,0,7.59,0c.536,0,.735.468,1.028.771,1.429,1.475,2.825,2.983,4.239,4.472q2.184,2.3,4.38,4.589c1.284,1.338,2.532,2.709,3.825,4.038.837.86,1.661,1.747,2.462,2.65.825.931,1.745,1.778,2.6,2.681.958,1.007,1.9,2.034,2.836,3.059.1.109.308.209.212.391-.085.161-.292.095-.446.095q-4.129.005-8.258,0Z" transform="translate(-258.865 -0.682)" fill="#8e8a25"/>
    <path id="Path_3" data-name="Path 3" d="M263.092,57.349q0,5.279,0,10.558c0,.763-.085.887-.824.851-4.185-.2-8.373-.1-12.56-.1-.767,0-.519-.514-.559-.859-.07-.594-.061-1.2-.088-1.8-.062-1.415.1-2.823.118-4.235.035-2.343-.2-4.682-.121-7.027.056-1.767.1-3.535.117-5.3.007-.818-.057-1.638-.109-2.456s.185-1.1,1.008-1.1q6.043,0,12.086,0c.926,0,.932.007.932.965Q263.093,52.1,263.092,57.349Z" transform="translate(-171.342)" fill="#5e892e"/>
    <path id="Path_4" data-name="Path 4" d="M239.14,273.179q0-3.155,0-6.31a5.952,5.952,0,0,0-.095-1.445c-.117-.474.032-.793.616-.726a3.723,3.723,0,0,0,.728,0c.389-.032.651.058.727.5.069.408.274.354.535.115,1.71-1.57,3.421-.97,4.631.487a6.8,6.8,0,0,1,1.342,4.967,10.234,10.234,0,0,1-.462,2.474,5.406,5.406,0,0,1-1.692,2.444,3.786,3.786,0,0,1-3.083.73c-.218-.017-.323-.24-.506-.317s-.336-.36-.587-.206c-.208.127-.121.369-.121.561,0,1.17.01,2.337.1,3.506.076.96.016.971-.932.964-1.352-.01-1.195.149-1.2-1.2C239.134,277.547,239.14,275.363,239.14,273.179Zm2.149-2.545c0,1.051,0,2.1,0,3.152a1.053,1.053,0,0,0,.195.676,1.907,1.907,0,0,0,2.819.145,4.219,4.219,0,0,0,1.124-2.427,10.03,10.03,0,0,0,.03-3.3,4.983,4.983,0,0,0-.868-2.344,1.982,1.982,0,0,0-1.82-.651c-.691.236-1.555,1.067-1.5,1.785C241.347,268.65,241.289,269.644,241.289,270.634Z" transform="translate(-162.891 -183.991)"/>
    <path id="Path_5" data-name="Path 5" d="M172.607,250.811a6.322,6.322,0,0,1-3.374-.912c-.435-.227-.364-.589-.355-.94.009-.335-.165-.817.1-.973.348-.2.538.308.809.49a4.641,4.641,0,0,0,4.224.81,3.041,3.041,0,0,0,1.676-3.258,4.143,4.143,0,0,0-2.416-2.751,20.842,20.842,0,0,1-3.118-1.958A2.991,2.991,0,0,1,169,238.963a4.635,4.635,0,0,1,3.709-5.014,6.272,6.272,0,0,1,3.8.456.648.648,0,0,1,.465.79c-.041.367.2.874-.153,1.064-.251.135-.554-.308-.842-.481a3.543,3.543,0,0,0-3.711-.344,2.786,2.786,0,0,0-1.193,2.7c.254,1.441,1.366,2.031,2.46,2.619a24.1,24.1,0,0,1,2.774,1.711,3.629,3.629,0,0,1,1.487,2.461,4.668,4.668,0,0,1-1.817,4.846A5.015,5.015,0,0,1,172.607,250.811Z" transform="translate(-103.8 -158.247)"/>
    <path id="Path_6" data-name="Path 6" d="M377.071,272.4c0,1.354-.011,2.708.005,4.062,0,.42-.1.636-.574.621-1.858-.058-1.723.309-1.53-1.668.215-2.2.159-4.391.181-6.586.01-1.023-.093-2.049-.18-3.071-.027-.313.08-.407.352-.41.3,0,.609.019.91-.01.587-.057.93.088.845.778-.058.468.165.462.489.224a4.927,4.927,0,0,1,2.145-1.158,3.286,3.286,0,0,1,3.566,2.3,15.509,15.509,0,0,1,.229,3.368q0,2.4,0,4.79a4.717,4.717,0,0,0,.012.545c.105.892.108.9-.772.892-1.442-.012-1.258.172-1.264-1.251-.01-2.243,0-4.487,0-6.731a5.073,5.073,0,0,0-.1-1.079,1.626,1.626,0,0,0-1.72-1.49,2.557,2.557,0,0,0-2.46,1.234,1.162,1.162,0,0,0-.13.638Q377.069,270.4,377.071,272.4Z" transform="translate(-277.291 -184.635)"/>
    <path id="Path_7" data-name="Path 7" d="M312.779,270.949a27.978,27.978,0,0,0,.232,5.009c.078.4-.049.677-.539.635a2.923,2.923,0,0,0-.667,0c-.567.082-.882-.128-.923-.715-.032-.466-.279-.457-.553-.2a4,4,0,0,1-2.137,1.009,3.366,3.366,0,0,1-2.959-1.209,3.438,3.438,0,0,1-.508-3.128,2.857,2.857,0,0,1,1.276-1.77,17.417,17.417,0,0,1,4.058-1.974c.878-.323,1.067-.935.527-1.732a3.112,3.112,0,0,0-2.452-1.208,3.724,3.724,0,0,0-2.126.579c-.44.219-.624.162-.611-.39.022-1.025.012-.958,1.014-1.141a10.031,10.031,0,0,1,3.469.02,3.294,3.294,0,0,1,2.9,3.182C312.763,268.926,312.779,269.937,312.779,270.949Zm-2.026,1.026c0-.687,0-1.374,0-2.06,0-.256,0-.442-.365-.287a17.107,17.107,0,0,0-2.582,1.318,2.468,2.468,0,0,0-1.314,2.355c.19,1.828,1.515,2.245,3.03,1.753,1.155-.375,1.231-.565,1.231-1.745Q310.753,272.641,310.753,271.974Z" transform="translate(-218.102 -184.143)"/>
  </g>
</svg>
