<svg xmlns="http://www.w3.org/2000/svg" width="24.145" height="24.221" viewBox="0 0 24.145 24.221">
  <g id="Group_22184" data-name="Group 22184" transform="translate(0.15 0.153)">
    <g id="Group_22104" data-name="Group 22104" transform="translate(0 0)">
      <g id="Group_22070" data-name="Group 22070" transform="translate(0 0.077)">
        <path id="Path_18096" data-name="Path 18096" d="M384.255,164.868H360.808a.2.2,0,0,1-.2-.2V141.223a.2.2,0,0,1,.336-.139l5.661,5.663a.2.2,0,1,1-.278.278L361,141.7v22.777H383.78l-11.389-11.389a.2.2,0,1,1,.278-.278l11.724,11.724a.2.2,0,0,1-.139.335Z" transform="translate(-360.611 -141.027)" fill="#fff" stroke="#fff" stroke-linecap="round" stroke-linejoin="bevel" stroke-width="0.3"/>
      </g>
      <g id="Group_22072" data-name="Group 22072" transform="translate(3.891 9.473)">
        <g id="Group_22071" data-name="Group 22071">
          <path id="Path_18097" data-name="Path 18097" d="M383.838,182.659H373.676a.2.2,0,0,1-.2-.2V172.3a.2.2,0,0,1,.336-.139l1.676,1.676a.2.2,0,1,1-.278.278l-1.34-1.34v9.491h9.491l-2.647-2.651a.2.2,0,1,1,.279-.277l2.982,2.986a.2.2,0,0,1-.139.335Zm-4.362-4.373a.2.2,0,0,1-.139-.058l-2.442-2.454a.2.2,0,0,1,.279-.277l2.442,2.454a.2.2,0,0,1-.139.335Z" transform="translate(-373.479 -172.104)" fill="#fff" stroke="#fff" stroke-linecap="round" stroke-linejoin="bevel" stroke-width="0.3"/>
        </g>
      </g>
      <g id="Group_22073" data-name="Group 22073" transform="translate(5.167 0)">
        <path id="Path_18098" data-name="Path 18098" d="M379.227,146.84h0a1.049,1.049,0,0,1-.722-.335,3.873,3.873,0,0,1-.8-2.714,4.49,4.49,0,0,1,.417-1.9,4.552,4.552,0,0,1,.669-1.045.2.2,0,0,1,.344.1,2.692,2.692,0,0,0,.911,1.54,1.87,1.87,0,0,1,.71,1.311,3.867,3.867,0,0,1-.792,2.7A1.045,1.045,0,0,1,379.227,146.84Zm-.465-.63.009.008a.681.681,0,0,0,.458.229.648.648,0,0,0,.438-.213,3.553,3.553,0,0,0,.692-2.443,1.519,1.519,0,0,0-.593-1.032,3.419,3.419,0,0,1-.925-1.345,4.168,4.168,0,0,0-.365.637,4.1,4.1,0,0,0-.38,1.74A3.592,3.592,0,0,0,378.762,146.21Z" transform="translate(-377.701 -140.772)" fill="#fff" stroke="#fff" stroke-linecap="round" stroke-linejoin="bevel" stroke-width="0.3"/>
      </g>
      <g id="Group_22074" data-name="Group 22074" transform="translate(5.528 5.4)">
        <path id="Path_18099" data-name="Path 18099" d="M381.02,160.492h-1.927a.2.2,0,0,1-.2-.2c0-.248,0-.5,0-.758a1.132,1.132,0,0,1,.147-.561,1.181,1.181,0,0,1,.233-.294.2.2,0,0,1,.249-.013.923.923,0,0,0,.535.187.909.909,0,0,0,.532-.187.2.2,0,0,1,.249.014,1.159,1.159,0,0,1,.233.3,1.134,1.134,0,0,1,.145.558c0,.256,0,.51,0,.758A.2.2,0,0,1,381.02,160.492Zm-1.732-.393h1.536c0-.184,0-.372,0-.56a.742.742,0,0,0-.095-.366.767.767,0,0,0-.057-.089,1.261,1.261,0,0,1-.616.167,1.291,1.291,0,0,1-.616-.167.731.731,0,0,0-.056.088.74.74,0,0,0-.1.368C379.287,159.728,379.287,159.915,379.288,160.1Z" transform="translate(-378.894 -158.632)" fill="#fff" stroke="#fff" stroke-linecap="round" stroke-linejoin="bevel" stroke-width="0.3"/>
      </g>
      <g id="Group_22075" data-name="Group 22075" transform="translate(5.53 6.867)">
        <path id="Path_18100" data-name="Path 18100" d="M381,165.579h-1.884a.2.2,0,0,1-.2-.193c0-.235-.02-1.459-.022-1.7a.2.2,0,0,1,.2-.2h1.927a.2.2,0,0,1,.2.2l-.021,1.7A.2.2,0,0,1,381,165.579Zm-1.69-.393h1.5l.017-1.308H379.3C379.3,164.221,379.307,164.847,379.311,165.186Z" transform="translate(-378.9 -163.485)" fill="#fff" stroke="#fff" stroke-linecap="round" stroke-linejoin="bevel" stroke-width="0.3"/>
      </g>
      <g id="Group_22076" data-name="Group 22076" transform="translate(5.551 8.568)">
        <path id="Path_18101" data-name="Path 18101" d="M380.108,178.1H380.1c-.165-.011-.241-.123-.433-.85a40.633,40.633,0,0,1-.691-7.939.2.2,0,0,1,.2-.2h1.884a.2.2,0,0,1,.2.2,40.66,40.66,0,0,1-.692,7.939C380.372,177.949,380.293,178.1,380.108,178.1Zm-.74-8.6a39.48,39.48,0,0,0,.674,7.646c.025.094.047.174.067.243.02-.068.042-.148.067-.242a39.47,39.47,0,0,0,.675-7.646Z" transform="translate(-378.972 -169.11)" fill="#fff" stroke="#fff" stroke-linecap="round" stroke-linejoin="bevel" stroke-width="0.3"/>
      </g>
      <g id="Group_22077" data-name="Group 22077" transform="translate(9.37 2.038)">
        <path id="Path_18102" data-name="Path 18102" d="M392.957,163.7a.2.2,0,0,1-.187-.135l-1.159-3.548a.2.2,0,0,1-.01-.061V147.708a.2.2,0,0,1,.2-.2h2.317a.2.2,0,0,1,.2.2v12.246a.19.19,0,0,1-.01.061l-1.158,3.548A.2.2,0,0,1,392.957,163.7Zm-.963-3.776.963,2.947.961-2.947V147.9h-1.924Z" transform="translate(-391.601 -147.511)" fill="#fff" stroke="#fff" stroke-linecap="round" stroke-linejoin="bevel" stroke-width="0.3"/>
      </g>
      <g id="Group_22078" data-name="Group 22078" transform="translate(9.37 13.79)">
        <path id="Path_18103" data-name="Path 18103" d="M394.141,187.273a.2.2,0,0,1-.13-.049l-.3-.26-.176.227a.2.2,0,0,1-.147.076.192.192,0,0,1-.153-.063l-.291-.313-.2.289a.2.2,0,0,1-.163.086h0a.2.2,0,0,1-.163-.087l-.195-.289-.292.313a.2.2,0,0,1-.288-.268l.461-.494a.2.2,0,0,1,.307.024l.17.252.17-.252a.2.2,0,0,1,.307-.024l.3.325.162-.21a.2.2,0,0,1,.285-.027l.453.4a.2.2,0,0,1-.13.344Z" transform="translate(-391.601 -186.38)" fill="#fff" stroke="#fff" stroke-linecap="round" stroke-linejoin="bevel" stroke-width="0.3"/>
      </g>
      <g id="Group_22079" data-name="Group 22079" transform="translate(9.37 0.247)">
        <path id="Path_18104" data-name="Path 18104" d="M394.114,143.773H391.8a.2.2,0,0,1-.2-.2v-.9a1.093,1.093,0,0,1,1.091-1.091h.528a1.092,1.092,0,0,1,1.09,1.091v.9A.2.2,0,0,1,394.114,143.773Zm-2.12-.393h1.924v-.7a.7.7,0,0,0-.7-.7h-.528a.7.7,0,0,0-.7.7Z" transform="translate(-391.601 -141.589)" fill="#fff" stroke="#fff" stroke-linecap="round" stroke-linejoin="bevel" stroke-width="0.3"/>
      </g>
      <g id="Group_22080" data-name="Group 22080" transform="translate(0 4.993)">
        <path id="Path_18105" data-name="Path 18105" d="M362.776,157.678h-1.968a.2.2,0,1,1,0-.393h1.968a.2.2,0,1,1,0,.393Z" transform="translate(-360.611 -157.285)" fill="#fff" stroke="#fff" stroke-linecap="round" stroke-linejoin="bevel" stroke-width="0.3"/>
      </g>
      <g id="Group_22081" data-name="Group 22081" transform="translate(0 6.466)">
        <path id="Path_18106" data-name="Path 18106" d="M362.078,162.55h-1.27a.2.2,0,1,1,0-.393h1.27a.2.2,0,1,1,0,.393Z" transform="translate(-360.611 -162.157)" fill="#fff" stroke="#fff" stroke-linecap="round" stroke-linejoin="bevel" stroke-width="0.3"/>
      </g>
      <g id="Group_22082" data-name="Group 22082" transform="translate(0 7.939)">
        <path id="Path_18107" data-name="Path 18107" d="M362.776,167.421h-1.968a.2.2,0,1,1,0-.393h1.968a.2.2,0,1,1,0,.393Z" transform="translate(-360.611 -167.028)" fill="#fff" stroke="#fff" stroke-linecap="round" stroke-linejoin="bevel" stroke-width="0.3"/>
      </g>
      <g id="Group_22083" data-name="Group 22083" transform="translate(0 9.411)">
        <path id="Path_18108" data-name="Path 18108" d="M362.078,172.292h-1.27a.2.2,0,1,1,0-.393h1.27a.2.2,0,0,1,0,.393Z" transform="translate(-360.611 -171.899)" fill="#fff" stroke="#fff" stroke-linecap="round" stroke-linejoin="bevel" stroke-width="0.3"/>
      </g>
      <g id="Group_22084" data-name="Group 22084" transform="translate(0 10.884)">
        <path id="Path_18109" data-name="Path 18109" d="M362.776,177.163h-1.968a.2.2,0,1,1,0-.393h1.968a.2.2,0,1,1,0,.393Z" transform="translate(-360.611 -176.77)" fill="#fff" stroke="#fff" stroke-linecap="round" stroke-linejoin="bevel" stroke-width="0.3"/>
      </g>
      <g id="Group_22085" data-name="Group 22085" transform="translate(0 12.357)">
        <path id="Path_18110" data-name="Path 18110" d="M362.078,182.034h-1.27a.2.2,0,1,1,0-.393h1.27a.2.2,0,1,1,0,.393Z" transform="translate(-360.611 -181.641)" fill="#fff" stroke="#fff" stroke-linecap="round" stroke-linejoin="bevel" stroke-width="0.3"/>
      </g>
      <g id="Group_22086" data-name="Group 22086" transform="translate(0 13.827)">
        <path id="Path_18111" data-name="Path 18111" d="M362.776,186.9h-1.968a.2.2,0,1,1,0-.393h1.968a.2.2,0,1,1,0,.393Z" transform="translate(-360.611 -186.503)" fill="#fff" stroke="#fff" stroke-linecap="round" stroke-linejoin="bevel" stroke-width="0.3"/>
      </g>
      <g id="Group_22087" data-name="Group 22087" transform="translate(0 15.299)">
        <path id="Path_18112" data-name="Path 18112" d="M362.078,191.766h-1.27a.2.2,0,1,1,0-.393h1.27a.2.2,0,0,1,0,.393Z" transform="translate(-360.611 -191.373)" fill="#fff" stroke="#fff" stroke-linecap="round" stroke-linejoin="bevel" stroke-width="0.3"/>
      </g>
      <g id="Group_22088" data-name="Group 22088" transform="translate(0 16.772)">
        <path id="Path_18113" data-name="Path 18113" d="M362.776,196.638h-1.968a.2.2,0,1,1,0-.393h1.968a.2.2,0,1,1,0,.393Z" transform="translate(-360.611 -196.245)" fill="#fff" stroke="#fff" stroke-linecap="round" stroke-linejoin="bevel" stroke-width="0.3"/>
      </g>
      <g id="Group_22089" data-name="Group 22089" transform="translate(0 18.246)">
        <path id="Path_18114" data-name="Path 18114" d="M362.078,201.511h-1.27a.2.2,0,1,1,0-.393h1.27a.2.2,0,1,1,0,.393Z" transform="translate(-360.611 -201.118)" fill="#fff" stroke="#fff" stroke-linecap="round" stroke-linejoin="bevel" stroke-width="0.3"/>
      </g>
      <g id="Group_22090" data-name="Group 22090" transform="translate(0 19.719)">
        <path id="Path_18115" data-name="Path 18115" d="M362.776,206.383h-1.968a.2.2,0,1,1,0-.393h1.968a.2.2,0,1,1,0,.393Z" transform="translate(-360.611 -205.99)" fill="#fff" stroke="#fff" stroke-linecap="round" stroke-linejoin="bevel" stroke-width="0.3"/>
      </g>
      <g id="Group_22091" data-name="Group 22091" transform="translate(0 21.192)">
        <path id="Path_18116" data-name="Path 18116" d="M362.078,211.254h-1.27a.2.2,0,1,1,0-.393h1.27a.2.2,0,1,1,0,.393Z" transform="translate(-360.611 -210.861)" fill="#fff" stroke="#fff" stroke-linecap="round" stroke-linejoin="bevel" stroke-width="0.3"/>
      </g>
      <g id="Group_22092" data-name="Group 22092" transform="translate(3.508 21.389)">
        <path id="Path_18117" data-name="Path 18117" d="M372.409,213.876a.2.2,0,0,1-.2-.2v-1.97a.2.2,0,0,1,.393,0v1.97A.2.2,0,0,1,372.409,213.876Z" transform="translate(-372.212 -211.513)" fill="#fff" stroke="#fff" stroke-linecap="round" stroke-linejoin="bevel" stroke-width="0.3"/>
      </g>
      <g id="Group_22093" data-name="Group 22093" transform="translate(4.98 22.087)">
        <path id="Path_18118" data-name="Path 18118" d="M377.279,215.487a.2.2,0,0,1-.2-.2v-1.272a.2.2,0,0,1,.393,0v1.272A.2.2,0,0,1,377.279,215.487Z" transform="translate(-377.082 -213.822)" fill="#fff" stroke="#fff" stroke-linecap="round" stroke-linejoin="bevel" stroke-width="0.3"/>
      </g>
      <g id="Group_22094" data-name="Group 22094" transform="translate(6.453 21.389)">
        <path id="Path_18119" data-name="Path 18119" d="M382.151,213.876a.2.2,0,0,1-.2-.2v-1.97a.2.2,0,0,1,.393,0v1.97A.2.2,0,0,1,382.151,213.876Z" transform="translate(-381.954 -211.513)" fill="#fff" stroke="#fff" stroke-linecap="round" stroke-linejoin="bevel" stroke-width="0.3"/>
      </g>
      <g id="Group_22095" data-name="Group 22095" transform="translate(7.926 22.087)">
        <path id="Path_18120" data-name="Path 18120" d="M387.021,215.487a.2.2,0,0,1-.2-.2v-1.272a.2.2,0,0,1,.393,0v1.272A.2.2,0,0,1,387.021,215.487Z" transform="translate(-386.824 -213.822)" fill="#fff" stroke="#fff" stroke-linecap="round" stroke-linejoin="bevel" stroke-width="0.3"/>
      </g>
      <g id="Group_22096" data-name="Group 22096" transform="translate(9.397 21.389)">
        <path id="Path_18121" data-name="Path 18121" d="M391.888,213.876a.2.2,0,0,1-.2-.2v-1.97a.2.2,0,0,1,.393,0v1.97A.2.2,0,0,1,391.888,213.876Z" transform="translate(-391.691 -211.513)" fill="#fff" stroke="#fff" stroke-linecap="round" stroke-linejoin="bevel" stroke-width="0.3"/>
      </g>
      <g id="Group_22097" data-name="Group 22097" transform="translate(10.87 22.087)">
        <path id="Path_18122" data-name="Path 18122" d="M396.761,215.487a.2.2,0,0,1-.2-.2v-1.272a.2.2,0,0,1,.393,0v1.272A.2.2,0,0,1,396.761,215.487Z" transform="translate(-396.564 -213.822)" fill="#fff" stroke="#fff" stroke-linecap="round" stroke-linejoin="bevel" stroke-width="0.3"/>
      </g>
      <g id="Group_22098" data-name="Group 22098" transform="translate(12.343 21.389)">
        <path id="Path_18123" data-name="Path 18123" d="M401.632,213.876a.2.2,0,0,1-.2-.2v-1.97a.2.2,0,0,1,.393,0v1.97A.2.2,0,0,1,401.632,213.876Z" transform="translate(-401.435 -211.513)" fill="#fff" stroke="#fff" stroke-linecap="round" stroke-linejoin="bevel" stroke-width="0.3"/>
      </g>
      <g id="Group_22099" data-name="Group 22099" transform="translate(13.816 22.087)">
        <path id="Path_18124" data-name="Path 18124" d="M406.5,215.487a.2.2,0,0,1-.2-.2v-1.272a.2.2,0,0,1,.393,0v1.272A.2.2,0,0,1,406.5,215.487Z" transform="translate(-406.307 -213.822)" fill="#fff" stroke="#fff" stroke-linecap="round" stroke-linejoin="bevel" stroke-width="0.3"/>
      </g>
      <g id="Group_22100" data-name="Group 22100" transform="translate(15.289 21.389)">
        <path id="Path_18125" data-name="Path 18125" d="M411.376,213.876a.2.2,0,0,1-.2-.2v-1.97a.2.2,0,1,1,.393,0v1.97A.2.2,0,0,1,411.376,213.876Z" transform="translate(-411.179 -211.513)" fill="#fff" stroke="#fff" stroke-linecap="round" stroke-linejoin="bevel" stroke-width="0.3"/>
      </g>
      <g id="Group_22101" data-name="Group 22101" transform="translate(16.762 22.087)">
        <path id="Path_18126" data-name="Path 18126" d="M416.246,215.487a.2.2,0,0,1-.2-.2v-1.272a.2.2,0,0,1,.393,0v1.272A.2.2,0,0,1,416.246,215.487Z" transform="translate(-416.049 -213.822)" fill="#fff" stroke="#fff" stroke-linecap="round" stroke-linejoin="bevel" stroke-width="0.3"/>
      </g>
      <g id="Group_22102" data-name="Group 22102" transform="translate(18.233 21.389)">
        <path id="Path_18127" data-name="Path 18127" d="M421.113,213.876a.2.2,0,0,1-.2-.2v-1.97a.2.2,0,0,1,.393,0v1.97A.2.2,0,0,1,421.113,213.876Z" transform="translate(-420.916 -211.513)" fill="#fff" stroke="#fff" stroke-linecap="round" stroke-linejoin="bevel" stroke-width="0.3"/>
      </g>
      <g id="Group_22103" data-name="Group 22103" transform="translate(19.706 22.087)">
        <path id="Path_18128" data-name="Path 18128" d="M425.983,215.487a.2.2,0,0,1-.2-.2v-1.272a.2.2,0,0,1,.393,0v1.272A.2.2,0,0,1,425.983,215.487Z" transform="translate(-425.786 -213.822)" fill="#fff" stroke="#fff" stroke-linecap="round" stroke-linejoin="bevel" stroke-width="0.3"/>
      </g>
    </g>
  </g>
</svg>
