<svg xmlns="http://www.w3.org/2000/svg" width="36.083" height="45.633" viewBox="0 0 36.083 45.633">
  <g id="Group_22069" data-name="Group 22069" transform="translate(-368.848 -530.769)">
    <g id="Group_22067" data-name="Group 22067" transform="translate(369.498 531.269)">
      <g id="Group_22066" data-name="Group 22066">
        <g id="Group_22064" data-name="Group 22064">
          <path id="Path_18008" data-name="Path 18008" d="M427.858,602.819v1.917h-3.41v-1.917Z" transform="translate(-393.075 -561.969)" fill="none" stroke="#fff" stroke-linecap="round" stroke-linejoin="round" stroke-width="1.3"/>
          <path id="Path_18009" data-name="Path 18009" d="M394.089,604.43v-1.894h6.731v3.794h-6.731Z" transform="translate(-380.049 -561.848)" fill="none" stroke="#fff" stroke-linecap="round" stroke-linejoin="round" stroke-width="1.3"/>
          <path id="Path_18010" data-name="Path 18010" d="M372.914,602.819v1.917H369.5v-1.917Z" transform="translate(-369.498 -561.969)" fill="none" stroke="#fff" stroke-linecap="round" stroke-linejoin="round" stroke-width="1.3"/>
          <path id="Path_18011" data-name="Path 18011" d="M420.332,575.188a1.264,1.264,0,1,1-1.27-1.264A1.269,1.269,0,0,1,420.332,575.188Z" transform="translate(-390.225 -549.571)" fill="none" stroke="#fff" stroke-linecap="round" stroke-linejoin="round" stroke-width="1.3"/>
          <path id="Path_18012" data-name="Path 18012" d="M399.433,573.816v2.653h-1.616v-2.653Z" transform="translate(-381.649 -549.525)" fill="none" stroke="#fff" stroke-linecap="round" stroke-linejoin="round" stroke-width="1.3"/>
          <path id="Path_18013" data-name="Path 18013" d="M379.17,575.188a1.265,1.265,0,1,1-1.266-1.264A1.268,1.268,0,0,1,379.17,575.188Z" transform="translate(-372.563 -549.571)" fill="none" stroke="#fff" stroke-linecap="round" stroke-linejoin="round" stroke-width="1.3"/>
          <path id="Path_18014" data-name="Path 18014" d="M397.841,546.756a1.843,1.843,0,0,1,1.305,3.153l-.018.023a1.849,1.849,0,0,1-3.136-1.333,1.842,1.842,0,0,1,1.848-1.844Z" transform="translate(-380.866 -537.914)" fill="none" stroke="#fff" stroke-linecap="round" stroke-linejoin="round" stroke-width="1.3"/>
          <path id="Path_18015" data-name="Path 18015" d="M394.039,548.508a2.614,2.614,0,0,0,3.688.028l.022-.028a2.621,2.621,0,1,0-3.709-3.7,2.614,2.614,0,0,0,0,3.7Zm-.97,1.572a3.631,3.631,0,0,1-.272-.245l-.012-.011-.028-.028-.023-.017c-.016-.017-.033-.034-.045-.05a.258.258,0,0,1-.037-.039.415.415,0,0,1-.079-.094,2.827,2.827,0,0,1-.262-.324.25.25,0,0,1-.05-.066c-.029-.045-.057-.083-.084-.123a1.47,1.47,0,0,1-.123-.207c-.016-.027-.033-.055-.049-.083-.006-.006-.006-.006-.006-.011s-.011-.017-.018-.028a.194.194,0,0,1-.027-.056,4.441,4.441,0,0,1,2.414-6.211s.01-.006.016-.006c.117-.039.239-.078.363-.112.01-.005.027-.005.039-.01s.034-.006.049-.012a.908.908,0,0,1,.129-.027c.049-.012.106-.023.161-.033.106-.018.212-.034.317-.045a.69.69,0,0,1,.106-.005,3.5,3.5,0,0,1,.692,0,2.374,2.374,0,0,1,.351.039.241.241,0,0,1,.066.011c.018.005.04.005.057.01a4.966,4.966,0,0,1,.674.179h.005a4.444,4.444,0,0,1,2.178,6.663,4.241,4.241,0,0,1-.54.658,3.845,3.845,0,0,1-.318.284,1.432,1.432,0,0,1-.211.162,1.157,1.157,0,0,1-.156.111,3.15,3.15,0,0,1-.335.2c-.011.011-.016.017-.027.017a3.086,3.086,0,0,1-.363.172,1.788,1.788,0,0,1-.245.1.271.271,0,0,1-.062.022l-.1.034c-.067.023-.134.039-.206.062l-.218.049c-.094.017-.188.034-.284.045a2.472,2.472,0,0,1-.284.033c-.106.006-.218.011-.329.011s-.221-.006-.333-.011-.2-.017-.289-.033a4.3,4.3,0,0,1-.847-.206l-.006-.006a1.5,1.5,0,0,1-.25-.1,3.967,3.967,0,0,1-.384-.183,3.424,3.424,0,0,1-.357-.218c-.006,0-.011,0-.011-.006s-.022-.017-.034-.022a3.409,3.409,0,0,1-.278-.212.048.048,0,0,1-.027-.022Z" transform="translate(-378.918 -535.967)" fill="none" stroke="#fff" stroke-linecap="round" stroke-linejoin="round" stroke-width="1.3"/>
          <path id="Path_18016" data-name="Path 18016" d="M399.178,532.993a1.259,1.259,0,0,1,.367.885v3.6l-.367-.073h-.007s-.01-.005-.016-.005c-.111-.017-.223-.033-.335-.045l-.2-.017c-.111-.005-.223-.011-.335-.011s-.216.006-.321.011a1.145,1.145,0,0,0-.2.017c-.127.011-.256.028-.384.05s-.235.045-.357.073v-3.6a1.266,1.266,0,0,1,1.258-1.253A1.258,1.258,0,0,1,399.178,532.993Z" transform="translate(-381.309 -531.851)" fill="none" stroke="#fff" stroke-linecap="round" stroke-linejoin="round" stroke-width="1.3"/>
          <path id="Path_18017" data-name="Path 18017" d="M404.966,575.992,400.041,557.6c.1-.006.2-.018.3-.034a.044.044,0,0,1,.028-.006h.012a4.9,4.9,0,0,0,.819-.2,2.538,2.538,0,0,0,.279-.1,5.045,5.045,0,0,0,.858-.429c.106-.067.212-.139.312-.206.134-.1.257-.2.38-.312a.217.217,0,0,0,.055-.049c.061-.057.123-.111.184-.174s.094-.095.139-.145l.034-.034c.061-.072.123-.139.178-.211.027-.029.05-.056.072-.084l5.175,19.328a1.989,1.989,0,0,1-.206,1.532,2.016,2.016,0,0,1-1.219.941,2.052,2.052,0,0,1-1.533-.206A2.017,2.017,0,0,1,404.966,575.992Z" transform="translate(-382.603 -541.716)" fill="none" stroke="#fff" stroke-linecap="round" stroke-linejoin="round" stroke-width="1.3"/>
          <path id="Path_18018" data-name="Path 18018" d="M385.8,577.183a2.034,2.034,0,0,1-1.527.206,2.031,2.031,0,0,1-1.427-2.473l5.187-19.367c.01.011.022.027.034.039a2.453,2.453,0,0,0,.2.239.554.554,0,0,0,.084.089.328.328,0,0,0,.045.05.754.754,0,0,0,.067.072l.022.022h.006c.055.062.118.116.173.174.011.01.023.015.027.022.118.106.235.206.363.3a.018.018,0,0,0,.011.006,5.277,5.277,0,0,0,.846.513,2.45,2.45,0,0,0,.335.145,1.925,1.925,0,0,0,.273.1c.09.034.184.062.278.09a2.9,2.9,0,0,0,.284.067,3.306,3.306,0,0,0,.341.061c.077.011.155.022.234.027a.01.01,0,0,0,.017,0l-4.925,18.4A2.007,2.007,0,0,1,385.8,577.183Z" transform="translate(-375.195 -541.687)" fill="none" stroke="#fff" stroke-linecap="round" stroke-linejoin="round" stroke-width="1.3"/>
          <path id="Path_18019" data-name="Path 18019" d="M405.936,556.167l.034-.034Z" transform="translate(-385.132 -541.937)" fill="none" stroke="#fff" stroke-width="1"/>
          <path id="Path_18020" data-name="Path 18020" d="M405.328,556.75a.215.215,0,0,1-.055.049C405.29,556.783,405.312,556.765,405.328,556.75Z" transform="translate(-384.848 -542.202)" fill="none" stroke="#fff" stroke-width="1"/>
          <path id="Path_18021" data-name="Path 18021" d="M404.726,555a4.241,4.241,0,0,0,.54-.658A3.99,3.99,0,0,1,404.726,555Z" transform="translate(-384.613 -541.167)" fill="none" stroke="#fff" stroke-width="1"/>
          <path id="Path_18022" data-name="Path 18022" d="M399.681,556.922l4.925,18.391a2.017,2.017,0,0,0,.942,1.22,2.052,2.052,0,0,0,1.533.206,2.015,2.015,0,0,0,1.219-.941,1.989,1.989,0,0,0,.206-1.532l-5.175-19.328c-.023.028-.045.055-.073.084a4.973,4.973,0,0,0,.635-.987l3.376,12.619,1.985,7.411a2.791,2.791,0,0,1-.279,2.117,2.753,2.753,0,0,1-1.488,1.237,1.247,1.247,0,0,1-.207.066,2.805,2.805,0,0,1-3.421-1.977l-2.373-8.854L399.2,558.12l.317-1.182Z" transform="translate(-382.244 -541.037)" fill="none" stroke="#fff" stroke-width="1"/>
          <path id="Path_18023" data-name="Path 18023" d="M404.487,555.49a2.544,2.544,0,0,1-.318.284A3.837,3.837,0,0,0,404.487,555.49Z" transform="translate(-384.374 -541.661)" fill="none" stroke="#fff" stroke-width="1"/>
          <path id="Path_18024" data-name="Path 18024" d="M404.374,557.383c-.1.067-.206.139-.312.206C404.168,557.522,404.274,557.456,404.374,557.383Z" transform="translate(-384.328 -542.474)" fill="none" stroke="#fff" stroke-width="1"/>
          <path id="Path_18025" data-name="Path 18025" d="M404.01,555.988a1.435,1.435,0,0,1-.211.162A1.435,1.435,0,0,0,404.01,555.988Z" transform="translate(-384.216 -541.875)" fill="none" stroke="#fff" stroke-width="1"/>
          <path id="Path_18026" data-name="Path 18026" d="M402.94,556.667a3.176,3.176,0,0,0,.335-.2,1.835,1.835,0,0,1-.174.111A1.4,1.4,0,0,1,402.94,556.667Z" transform="translate(-383.847 -542.081)" fill="none" stroke="#fff" stroke-width="1"/>
          <path id="Path_18027" data-name="Path 18027" d="M402.62,556.846a3.1,3.1,0,0,1-.363.172A3.1,3.1,0,0,0,402.62,556.846Z" transform="translate(-383.554 -542.243)" fill="none" stroke="#fff" stroke-width="1"/>
          <path id="Path_18028" data-name="Path 18028" d="M402.072,558.6c.094-.034.184-.067.279-.1A2.558,2.558,0,0,1,402.072,558.6Z" transform="translate(-383.475 -542.951)" fill="none" stroke="#fff" stroke-width="1"/>
          <path id="Path_18029" data-name="Path 18029" d="M401.958,542.225a.38.38,0,0,0,.423-.34l.01-.206v-.095a5.208,5.208,0,0,1,2.641,7.109l-.039-.139a.386.386,0,0,0-.73-.056,2.969,2.969,0,0,1-.229.368,4.445,4.445,0,0,0-2.177-6.663Z" transform="translate(-383.383 -535.695)" fill="none" stroke="#fff" stroke-width="1"/>
          <path id="Path_18030" data-name="Path 18030" d="M401.781,557.315a.274.274,0,0,1-.062.022A.274.274,0,0,0,401.781,557.315Z" transform="translate(-383.323 -542.445)" fill="none" stroke="#fff" stroke-width="1"/>
          <path id="Path_18031" data-name="Path 18031" d="M401.184,557.474c.072-.023.139-.039.206-.062C401.323,557.435,401.256,557.457,401.184,557.474Z" transform="translate(-383.094 -542.486)" fill="none" stroke="#fff" stroke-width="1"/>
          <path id="Path_18032" data-name="Path 18032" d="M400.638,558.872a5.045,5.045,0,0,0,.819-.2A4.9,4.9,0,0,1,400.638,558.872Z" transform="translate(-382.859 -543.027)" fill="none" stroke="#fff" stroke-width="1"/>
          <path id="Path_18033" data-name="Path 18033" d="M400.589,557.607c-.094.017-.188.034-.284.045C400.4,557.641,400.5,557.624,400.589,557.607Z" transform="translate(-382.716 -542.57)" fill="none" stroke="#fff" stroke-width="1"/>
          <path id="Path_18034" data-name="Path 18034" d="M400.77,540.993a.018.018,0,0,0-.016-.005C400.76,540.988,400.765,540.993,400.77,540.993Z" transform="translate(-382.909 -535.439)" fill="none" stroke="#fff" stroke-width="1"/>
          <path id="Path_18035" data-name="Path 18035" d="M400.668,542.354a4.116,4.116,0,0,1,.674.179A4.965,4.965,0,0,0,400.668,542.354Z" transform="translate(-382.872 -536.025)" fill="none" stroke="#fff" stroke-width="1"/>
          <path id="Path_18036" data-name="Path 18036" d="M400.6,559.022a.044.044,0,0,0-.028.006A.232.232,0,0,0,400.6,559.022Z" transform="translate(-382.829 -543.177)" fill="none" stroke="#fff" stroke-width="1"/>
          <path id="Path_18037" data-name="Path 18037" d="M400.518,542.327a.245.245,0,0,0-.066-.011.245.245,0,0,1,.061.005Z" transform="translate(-382.779 -536.009)" fill="none" stroke="#fff" stroke-width="1"/>
          <path id="Path_18038" data-name="Path 18038" d="M399.807,557.719a2.486,2.486,0,0,0,.284-.033A2.242,2.242,0,0,1,399.807,557.719Z" transform="translate(-382.503 -542.604)" fill="none" stroke="#fff" stroke-width="1"/>
          <path id="Path_18039" data-name="Path 18039" d="M400.017,540.9l-.2-.017Z" transform="translate(-382.507 -535.393)" fill="none" stroke="#fff" stroke-width="1"/>
          <path id="Path_18040" data-name="Path 18040" d="M401.131,556.26c-.095.033-.184.066-.279.1a5.052,5.052,0,0,1-.819.2h-.012a.23.23,0,0,1-.028.006c-.1.016-.2.027-.3.034l-.161.017.067-.262a.491.491,0,0,0,.023-.124.392.392,0,0,0-.392-.389c.112,0,.224-.006.329-.011a2.265,2.265,0,0,0,.284-.033c.1-.011.19-.029.284-.045l.217-.049c.072-.017.139-.039.206-.062l.1-.034a.272.272,0,0,0,.062-.022,1.785,1.785,0,0,0,.245-.1,3.085,3.085,0,0,0,.363-.172c.011,0,.016-.006.027-.017a1.4,1.4,0,0,0,.161-.089,1.808,1.808,0,0,0,.174-.111,1.153,1.153,0,0,0,.156-.111,1.43,1.43,0,0,0,.211-.162,2.55,2.55,0,0,0,.318-.284,4,4,0,0,0,.54-.658,2.978,2.978,0,0,0,.229-.368.386.386,0,0,1,.73.056l.039.139a4.968,4.968,0,0,1-.635.987c-.055.071-.117.139-.178.211l-.034.034c-.045.05-.09.095-.139.145s-.123.117-.184.174c-.016.015-.039.033-.055.049-.123.111-.246.212-.38.312-.1.073-.206.139-.312.206A5.056,5.056,0,0,1,401.131,556.26Z" transform="translate(-382.255 -540.716)" fill="none" stroke="#fff" stroke-width="1"/>
          <path id="Path_18041" data-name="Path 18041" d="M399.577,542.235a3.449,3.449,0,0,0-.347-.017A3.449,3.449,0,0,1,399.577,542.235Z" transform="translate(-382.255 -535.967)" fill="none" stroke="#fff" stroke-width="1"/>
          <path id="Path_18042" data-name="Path 18042" d="M398.971,542.218a3.428,3.428,0,0,0-.345.017A3.428,3.428,0,0,1,398.971,542.218Z" transform="translate(-381.996 -535.967)" fill="none" stroke="#fff" stroke-width="1"/>
          <path id="Path_18043" data-name="Path 18043" d="M398.912,557.764a.392.392,0,0,1,.392.389.493.493,0,0,1-.023.124l-.067.262c-.1,0-.2.006-.3.006s-.227-.006-.339-.011l-.073-.279-.012-.106a.382.382,0,0,1,.386-.379Z" transform="translate(-381.937 -542.637)" fill="none" stroke="#fff" stroke-width="1"/>
          <path id="Path_18044" data-name="Path 18044" d="M398.96,560.3l-.323-1.187c.111.005.227.011.339.011s.2-.006.3-.006Z" transform="translate(-382.001 -543.215)" fill="none" stroke="#fff" stroke-width="1"/>
          <path id="Path_18045" data-name="Path 18045" d="M398.52,540.881a1.188,1.188,0,0,0-.2.017A1.152,1.152,0,0,1,398.52,540.881Z" transform="translate(-381.866 -535.393)" fill="none" stroke="#fff" stroke-width="1"/>
          <path id="Path_18046" data-name="Path 18046" d="M398.428,557.719c-.1-.011-.2-.016-.289-.033C398.233,557.7,398.329,557.708,398.428,557.719Z" transform="translate(-381.787 -542.604)" fill="none" stroke="#fff" stroke-width="1"/>
          <path id="Path_18047" data-name="Path 18047" d="M398.2,542.257c-.106.011-.212.027-.317.045C397.991,542.284,398.091,542.268,398.2,542.257Z" transform="translate(-381.678 -535.984)" fill="none" stroke="#fff" stroke-width="1"/>
          <path id="Path_18048" data-name="Path 18048" d="M397.915,559.032c.077.011.155.016.233.027C398.07,559.054,397.992,559.043,397.915,559.032Z" transform="translate(-381.691 -543.181)" fill="none" stroke="#fff" stroke-width="1"/>
          <path id="Path_18049" data-name="Path 18049" d="M397.6,542.369a1.334,1.334,0,0,1,.161-.033C397.709,542.346,397.652,542.357,397.6,542.369Z" transform="translate(-381.557 -536.018)" fill="none" stroke="#fff" stroke-width="1"/>
          <path id="Path_18050" data-name="Path 18050" d="M397.506,542.394a.918.918,0,0,0-.129.027C397.422,542.411,397.467,542.4,397.506,542.394Z" transform="translate(-381.46 -536.042)" fill="none" stroke="#fff" stroke-width="1"/>
          <path id="Path_18051" data-name="Path 18051" d="M397.34,542.442c-.015.006-.034.006-.049.012C397.306,542.448,397.325,542.448,397.34,542.442Z" transform="translate(-381.423 -536.063)" fill="none" stroke="#fff" stroke-width="1"/>
          <path id="Path_18052" data-name="Path 18052" d="M396.821,558.808c.1.022.19.05.284.067A2.9,2.9,0,0,1,396.821,558.808Z" transform="translate(-381.221 -543.085)" fill="none" stroke="#fff" stroke-width="1"/>
          <path id="Path_18053" data-name="Path 18053" d="M398.932,533.3a1.254,1.254,0,0,0-1.26-1.253,1.266,1.266,0,0,0-1.258,1.253v3.6a4.817,4.817,0,0,0-.779.268c-.084-1.214.006-2.652.006-3.867a2.036,2.036,0,0,1,2.032-2.027,2.034,2.034,0,0,1,1.438.6,2.007,2.007,0,0,1,.6,1.431v3.862a5.286,5.286,0,0,0-.774-.263Z" transform="translate(-380.697 -531.269)" fill="none" stroke="#fff" stroke-width="1"/>
          <path id="Path_18054" data-name="Path 18054" d="M396.951,542.481c-.123.034-.245.073-.363.112C396.705,542.554,396.827,542.515,396.951,542.481Z" transform="translate(-381.121 -536.08)" fill="none" stroke="#fff" stroke-width="1"/>
          <path id="Path_18055" data-name="Path 18055" d="M396.334,558.651c.09.034.184.062.278.09C396.518,558.713,396.424,558.685,396.334,558.651Z" transform="translate(-381.013 -543.018)" fill="none" stroke="#fff" stroke-width="1"/>
          <path id="Path_18056" data-name="Path 18056" d="M396.645,557.315l.006.006Z" transform="translate(-381.146 -542.445)" fill="none" stroke="#fff" stroke-width="1"/>
          <path id="Path_18057" data-name="Path 18057" d="M396.129,558.576a1.926,1.926,0,0,1-.273-.1A2.221,2.221,0,0,0,396.129,558.576Z" transform="translate(-380.807 -542.943)" fill="none" stroke="#fff" stroke-width="1"/>
          <path id="Path_18058" data-name="Path 18058" d="M398.569,546.71a1.847,1.847,0,1,0-.023,2.636l.018-.023a1.842,1.842,0,0,0,.006-2.613Zm-1.311,3.934a2.627,2.627,0,0,1,0-5.254,2.622,2.622,0,0,1,1.855,4.479l-.022.028A2.614,2.614,0,0,1,397.258,550.644Z" transform="translate(-380.284 -537.328)" fill="none" stroke="#fff" stroke-width="1"/>
          <path id="Path_18059" data-name="Path 18059" d="M399.723,541.574a.38.38,0,0,1-.423.34l-.1-.022h-.005a4.117,4.117,0,0,0-.674-.179c-.017-.005-.039-.005-.057-.01l-.005-.006a.248.248,0,0,0-.061-.005,2.383,2.383,0,0,0-.351-.039,3.511,3.511,0,0,0-.692,0,.683.683,0,0,0-.106.005c-.112.011-.212.027-.317.045a1.323,1.323,0,0,0-.161.033c-.039.006-.084.017-.129.027-.015.006-.034.006-.049.012s-.029.005-.039.01c-.123.034-.246.072-.363.112-.006,0-.012.006-.016.006a.4.4,0,0,1-.48-.24.342.342,0,0,1-.018-.106c0-.089-.015-.184-.015-.279a4.813,4.813,0,0,1,.779-.268c.122-.027.239-.055.357-.072s.257-.038.384-.05a1.187,1.187,0,0,1,.2-.017c.106-.005.217-.011.321-.011s.224.006.335.011l.2.017c.111.011.223.028.335.045a.018.018,0,0,1,.016.005h.007l.366.072a5.276,5.276,0,0,1,.774.263v.095Z" transform="translate(-380.724 -535.385)" fill="none" stroke="#fff" stroke-width="1"/>
          <path id="Path_18060" data-name="Path 18060" d="M395.534,556.827a3.96,3.96,0,0,0,.384.183A2.474,2.474,0,0,1,395.534,556.827Z" transform="translate(-380.669 -542.235)" fill="none" stroke="#fff" stroke-width="1"/>
          <path id="Path_18061" data-name="Path 18061" d="M394.909,556.446a3.44,3.44,0,0,0,.357.218,2.051,2.051,0,0,1-.19-.106A1.58,1.58,0,0,1,394.909,556.446Z" transform="translate(-380.401 -542.072)" fill="none" stroke="#fff" stroke-width="1"/>
          <path id="Path_18062" data-name="Path 18062" d="M394.83,556.4c.012.006.023.018.034.022A.111.111,0,0,1,394.83,556.4Z" transform="translate(-380.367 -542.051)" fill="none" stroke="#fff" stroke-width="1"/>
          <path id="Path_18063" data-name="Path 18063" d="M394.343,556.026a3.414,3.414,0,0,0,.278.212A2.478,2.478,0,0,1,394.343,556.026Z" transform="translate(-380.158 -541.891)" fill="none" stroke="#fff" stroke-width="1"/>
          <path id="Path_18064" data-name="Path 18064" d="M394.3,555.988a.047.047,0,0,0,.027.022A.035.035,0,0,1,394.3,555.988Z" transform="translate(-380.138 -541.875)" fill="none" stroke="#fff" stroke-width="1"/>
          <path id="Path_18065" data-name="Path 18065" d="M393.787,557.325c.133.095.267.184.407.267s.289.167.439.245A5.268,5.268,0,0,1,393.787,557.325Z" transform="translate(-379.92 -542.449)" fill="none" stroke="#fff" stroke-width="1"/>
          <path id="Path_18066" data-name="Path 18066" d="M393.808,555.558a3.639,3.639,0,0,0,.272.246A3.639,3.639,0,0,1,393.808,555.558Z" transform="translate(-379.929 -541.691)" fill="none" stroke="#fff" stroke-width="1"/>
          <path id="Path_18067" data-name="Path 18067" d="M393.787,555.539l.012.011C393.793,555.545,393.787,555.545,393.787,555.539Z" transform="translate(-379.92 -541.682)" fill="none" stroke="#fff" stroke-width="1"/>
          <path id="Path_18068" data-name="Path 18068" d="M393.554,555.3a.261.261,0,0,0,.037.039A.272.272,0,0,1,393.554,555.3Z" transform="translate(-379.82 -541.582)" fill="none" stroke="#fff" stroke-width="1"/>
          <path id="Path_18069" data-name="Path 18069" d="M393.132,556.788c.118.106.241.206.363.3C393.367,556.994,393.25,556.894,393.132,556.788Z" transform="translate(-379.639 -542.218)" fill="none" stroke="#fff" stroke-width="1"/>
          <path id="Path_18070" data-name="Path 18070" d="M392.957,554.572a2.831,2.831,0,0,0,.262.324A2.364,2.364,0,0,1,392.957,554.572Z" transform="translate(-379.564 -541.268)" fill="none" stroke="#fff" stroke-width="1"/>
          <path id="Path_18071" data-name="Path 18071" d="M392.781,556.446c.055.062.112.117.173.174C392.9,556.563,392.836,556.508,392.781,556.446Z" transform="translate(-379.488 -542.072)" fill="none" stroke="#fff" stroke-width="1"/>
          <path id="Path_18072" data-name="Path 18072" d="M392.807,554.364a.569.569,0,0,1-.084-.123C392.75,554.28,392.778,554.319,392.807,554.364Z" transform="translate(-379.463 -541.126)" fill="none" stroke="#fff" stroke-width="1"/>
          <path id="Path_18073" data-name="Path 18073" d="M392.683,556.353a.755.755,0,0,1-.067-.073.507.507,0,0,0,.094.095H392.7Z" transform="translate(-379.417 -542)" fill="none" stroke="#fff" stroke-width="1"/>
          <path id="Path_18074" data-name="Path 18074" d="M392.391,556.036a.6.6,0,0,0,.084.089A.55.55,0,0,1,392.391,556.036Z" transform="translate(-379.321 -541.896)" fill="none" stroke="#fff" stroke-width="1"/>
          <path id="Path_18075" data-name="Path 18075" d="M392.421,553.733c.016.029.033.056.049.083A.287.287,0,0,1,392.421,553.733Z" transform="translate(-379.334 -540.908)" fill="none" stroke="#fff" stroke-width="1"/>
          <path id="Path_18076" data-name="Path 18076" d="M392.38,553.665c.006.011.011.017.018.028A.084.084,0,0,1,392.38,553.665Z" transform="translate(-379.316 -540.878)" fill="none" stroke="#fff" stroke-width="1"/>
          <path id="Path_18077" data-name="Path 18077" d="M392.24,555.856a2.46,2.46,0,0,1-.2-.239A2.46,2.46,0,0,0,392.24,555.856Z" transform="translate(-379.17 -541.716)" fill="none" stroke="#fff" stroke-width="1"/>
          <path id="Path_18078" data-name="Path 18078" d="M391.981,555.549c.01.011.022.027.034.039C392,555.576,391.991,555.56,391.981,555.549Z" transform="translate(-379.145 -541.687)" fill="none" stroke="#fff" stroke-width="1"/>
          <path id="Path_18079" data-name="Path 18079" d="M392.071,553.92a.251.251,0,0,0,.05.066,2.366,2.366,0,0,0,.262.324.417.417,0,0,0,.079.094.268.268,0,0,0,.037.039c.012.016.029.033.045.05l.023.017.028.028c0,.006.006.006.012.011a3.625,3.625,0,0,0,.272.246h.006a.035.035,0,0,0,.027.022,2.486,2.486,0,0,0,.278.212.114.114,0,0,0,.034.022c0,.006.006.006.011.006a1.561,1.561,0,0,0,.167.112,2.041,2.041,0,0,0,.19.106,2.472,2.472,0,0,0,.384.183,1.5,1.5,0,0,0,.25.1l.006.006a4.308,4.308,0,0,0,.847.206c.094.017.19.022.289.033s.222.011.333.011l-.037.005a.382.382,0,0,0-.386.379l.012.106.073.279a1.41,1.41,0,0,1-.162-.018.01.01,0,0,1-.017,0c-.078-.011-.156-.016-.233-.027a3.3,3.3,0,0,1-.341-.061c-.094-.017-.188-.045-.284-.067s-.188-.056-.278-.09a2.208,2.208,0,0,1-.273-.1,2.443,2.443,0,0,1-.335-.145c-.15-.079-.3-.156-.439-.245s-.274-.172-.407-.267a.018.018,0,0,1-.011-.006c-.122-.1-.245-.2-.363-.3,0-.006-.017-.011-.027-.022-.061-.057-.118-.111-.173-.174a.509.509,0,0,1-.094-.095.326.326,0,0,1-.045-.05.606.606,0,0,1-.084-.089,2.449,2.449,0,0,1-.2-.239c-.012-.011-.023-.027-.034-.039a5.174,5.174,0,0,1-.556-.908l.039-.139a.393.393,0,0,1,.473-.279.416.416,0,0,1,.245.195.2.2,0,0,0,.027.056.084.084,0,0,0,.018.028c0,.005,0,.005.006.011a.287.287,0,0,0,.049.083,1.464,1.464,0,0,0,.123.207A.57.57,0,0,0,392.071,553.92Z" transform="translate(-378.727 -540.682)" fill="none" stroke="#fff" stroke-width="1"/>
          <path id="Path_18080" data-name="Path 18080" d="M392.176,543.248a4.421,4.421,0,0,0-.8,5.182.416.416,0,0,0-.245-.195.393.393,0,0,0-.473.279l-.039.139a5.2,5.2,0,0,1,2.657-7.059c0,.094.011.19.015.279a.34.34,0,0,0,.018.106.4.4,0,0,0,.48.24A4.4,4.4,0,0,0,392.176,543.248Z" transform="translate(-378.337 -535.699)" fill="none" stroke="#fff" stroke-width="1"/>
          <path id="Path_18081" data-name="Path 18081" d="M386.908,575.475a2.8,2.8,0,0,1-3.421,1.977.85.85,0,0,1-.117-.039,2.789,2.789,0,0,1-1.856-3.381l1.984-7.411,3.394-12.663a5.174,5.174,0,0,0,.556.908l-5.187,19.366a2.031,2.031,0,0,0,1.427,2.473,2.033,2.033,0,0,0,1.527-.206,2.007,2.007,0,0,0,.947-1.22l4.925-18.4a1.425,1.425,0,0,0,.162.018l.323,1.187-2.291,8.534Z" transform="translate(-374.613 -541.004)" fill="none" stroke="#fff" stroke-width="1"/>
        </g>
        <g id="Group_22065" data-name="Group 22065" transform="translate(0 24.292)">
          <path id="Path_18082" data-name="Path 18082" d="M383.8,594.252l-.151.45-1.576,4.742" transform="translate(-374.895 -582.585)" fill="none" stroke="#fff" stroke-linecap="round" stroke-linejoin="round" stroke-width="1.3"/>
          <path id="Path_18083" data-name="Path 18083" d="M413.4,594.037l.178.546,1.588,4.792" transform="translate(-388.336 -582.492)" fill="none" stroke="#fff" stroke-linecap="round" stroke-linejoin="round" stroke-width="1.3"/>
          <path id="Path_18084" data-name="Path 18084" d="M412.708,576.138h2.909" transform="translate(-388.038 -574.812)" fill="none" stroke="#fff" stroke-linecap="round" stroke-linejoin="round" stroke-width="1.3"/>
          <path id="Path_18085" data-name="Path 18085" d="M400.648,576.138H402.4" transform="translate(-382.863 -574.812)" fill="none" stroke="#fff" stroke-linecap="round" stroke-linejoin="round" stroke-width="1.3"/>
          <path id="Path_18086" data-name="Path 18086" d="M394.5,576.138h1.893" transform="translate(-380.226 -574.812)" fill="none" stroke="#fff" stroke-linecap="round" stroke-linejoin="round" stroke-width="1.3"/>
          <path id="Path_18087" data-name="Path 18087" d="M380.67,576.138h3.01" transform="translate(-374.292 -574.812)" fill="none" stroke="#fff" stroke-linecap="round" stroke-linejoin="round" stroke-width="1.3"/>
          <path id="Path_18088" data-name="Path 18088" d="M377.9,573.924a1.265,1.265,0,1,1-1.263,1.264A1.267,1.267,0,0,1,377.9,573.924Z" transform="translate(-372.563 -573.863)" fill="none" stroke="#fff" stroke-linecap="round" stroke-linejoin="round" stroke-width="1.3"/>
          <path id="Path_18089" data-name="Path 18089" d="M419.062,573.924a1.265,1.265,0,1,1-1.258,1.264A1.268,1.268,0,0,1,419.062,573.924Z" transform="translate(-390.225 -573.863)" fill="none" stroke="#fff" stroke-linecap="round" stroke-linejoin="round" stroke-width="1.3"/>
          <path id="Path_18090" data-name="Path 18090" d="M397.816,575.142v-1.325h1.616v2.653h-1.616Z" transform="translate(-381.649 -573.816)" fill="none" stroke="#fff" stroke-linecap="round" stroke-linejoin="round" stroke-width="1.3"/>
          <path id="Path_18091" data-name="Path 18091" d="M394.089,604.43v-1.894h6.731v3.794h-6.731Z" transform="translate(-380.049 -586.139)" fill="none" stroke="#fff" stroke-linecap="round" stroke-linejoin="round" stroke-width="1.3"/>
          <path id="Path_18092" data-name="Path 18092" d="M424.448,602.819h3.41v1.917h-3.41v-1.917Z" transform="translate(-393.075 -586.261)" fill="none" stroke="#fff" stroke-linecap="round" stroke-linejoin="round" stroke-width="1.3"/>
          <path id="Path_18093" data-name="Path 18093" d="M405.878,605.272l6.135-.445,4.468-.328" transform="translate(-385.108 -586.981)" fill="none" stroke="#fff" stroke-linecap="round" stroke-linejoin="round" stroke-width="1.3"/>
          <path id="Path_18094" data-name="Path 18094" d="M372.914,602.819H369.5v1.917h3.416v-1.917Z" transform="translate(-369.498 -586.261)" fill="none" stroke="#fff" stroke-linecap="round" stroke-linejoin="round" stroke-width="1.3"/>
          <path id="Path_18095" data-name="Path 18095" d="M386.083,605.272l-6.9-.506-3.7-.268" transform="translate(-372.065 -586.981)" fill="none" stroke="#fff" stroke-linecap="round" stroke-linejoin="round" stroke-width="1.3"/>
        </g>
      </g>
    </g>
  </g>
</svg>
