<svg xmlns="http://www.w3.org/2000/svg" width="45.624" height="44.275" viewBox="0 0 45.624 44.275">
  <g id="Group_22125" data-name="Group 22125" transform="translate(-490.375 -661.861)">
    <g id="Group_22124" data-name="Group 22124" transform="translate(490.375 661.861)">
      <g id="Group_22106" data-name="Group 22106" transform="translate(0 31.046)">
        <path id="Path_18129" data-name="Path 18129" d="M534.275,728.96H490.75a.374.374,0,0,1-.375-.375V716.106a.375.375,0,0,1,.375-.375h20.376a.377.377,0,0,1,.265.11l1.82,1.82a.375.375,0,1,1-.53.53l-1.711-1.711H491.125v11.73h43.15a.375.375,0,1,1,0,.749Z" transform="translate(-490.375 -715.731)" fill="#99ba49"/>
      </g>
      <g id="Group_22107" data-name="Group 22107" transform="translate(32.395)">
        <path id="Path_18130" data-name="Path 18130" d="M559.441,706.136H546.962a.374.374,0,0,1-.375-.375V662.236a.375.375,0,0,1,.375-.375h12.479a.375.375,0,0,1,.375.375v43.525A.374.374,0,0,1,559.441,706.136Zm-12.1-.749h11.729V662.611H547.337Z" transform="translate(-546.587 -661.861)" fill="#99ba49"/>
      </g>
      <g id="Group_22108" data-name="Group 22108" transform="translate(32.395 6.696)">
        <path id="Path_18131" data-name="Path 18131" d="M559.441,674.23H546.962a.375.375,0,0,1,0-.75h12.479a.375.375,0,0,1,0,.75Z" transform="translate(-546.587 -673.48)" fill="#99ba49"/>
      </g>
      <g id="Group_22109" data-name="Group 22109" transform="translate(32.395 14.001)">
        <path id="Path_18132" data-name="Path 18132" d="M559.441,686.906H546.962a.375.375,0,0,1,0-.75h12.479a.375.375,0,0,1,0,.75Z" transform="translate(-546.587 -686.156)" fill="#99ba49"/>
      </g>
      <g id="Group_22110" data-name="Group 22110" transform="translate(32.395 21.307)">
        <path id="Path_18133" data-name="Path 18133" d="M559.441,699.583H546.962a.375.375,0,0,1,0-.75h12.479a.375.375,0,0,1,0,.75Z" transform="translate(-546.587 -698.833)" fill="#99ba49"/>
      </g>
      <g id="Group_22111" data-name="Group 22111" transform="translate(32.395 28.61)">
        <path id="Path_18134" data-name="Path 18134" d="M559.441,712.255H546.962a.375.375,0,0,1,0-.75h12.479a.375.375,0,0,1,0,.75Z" transform="translate(-546.587 -711.505)" fill="#99ba49"/>
      </g>
      <g id="Group_22112" data-name="Group 22112" transform="translate(32.395 35.917)">
        <path id="Path_18135" data-name="Path 18135" d="M559.441,724.932H546.962a.375.375,0,1,1,0-.749h12.479a.375.375,0,0,1,0,.749Z" transform="translate(-546.587 -724.183)" fill="#99ba49"/>
      </g>
      <g id="Group_22113" data-name="Group 22113" transform="translate(37.569 38.883)">
        <path id="Path_18136" data-name="Path 18136" d="M557.005,732.211a1.44,1.44,0,1,1,1.44-1.44A1.442,1.442,0,0,1,557.005,732.211Zm0-2.131a.691.691,0,1,0,.69.691A.691.691,0,0,0,557.005,730.08Z" transform="translate(-555.565 -729.33)" fill="#99ba49"/>
      </g>
      <g id="Group_22114" data-name="Group 22114" transform="translate(1.964 3.815)">
        <path id="Path_18137" data-name="Path 18137" d="M524.589,708.483a.377.377,0,0,1-.265-.11l-30.431-30.43a.374.374,0,0,1,0-.53l8.82-8.827a.386.386,0,0,1,.53,0L524.854,690.2a.377.377,0,0,1,.11.265v17.646a.376.376,0,0,1-.375.375Zm-29.9-30.805L524.214,707.2V690.618L502.978,669.38Z" transform="translate(-493.783 -668.481)" fill="#99ba49"/>
      </g>
      <g id="Group_22115" data-name="Group 22115" transform="translate(6.699 8.546)">
        <path id="Path_18138" data-name="Path 18138" d="M502.373,686.266a.375.375,0,0,1-.265-.64l8.822-8.827a.375.375,0,1,1,.53.53l-8.822,8.827A.375.375,0,0,1,502.373,686.266Z" transform="translate(-501.999 -676.689)" fill="#99ba49"/>
      </g>
      <g id="Group_22116" data-name="Group 22116" transform="translate(11.862 13.715)">
        <path id="Path_18139" data-name="Path 18139" d="M511.333,695.229a.375.375,0,0,1-.265-.64l8.827-8.82a.375.375,0,0,1,.53.53l-8.827,8.82A.375.375,0,0,1,511.333,695.229Z" transform="translate(-510.958 -685.659)" fill="#99ba49"/>
      </g>
      <g id="Group_22117" data-name="Group 22117" transform="translate(17.031 18.877)">
        <path id="Path_18140" data-name="Path 18140" d="M520.3,704.192a.375.375,0,0,1-.265-.64l8.824-8.826a.375.375,0,0,1,.53.53l-8.824,8.826A.374.374,0,0,1,520.3,704.192Z" transform="translate(-519.927 -694.616)" fill="#99ba49"/>
      </g>
      <g id="Group_22118" data-name="Group 22118" transform="translate(22.196 24.045)">
        <path id="Path_18141" data-name="Path 18141" d="M529.264,713.154a.375.375,0,0,1-.265-.64l8.824-8.821a.375.375,0,1,1,.53.53l-8.823,8.821A.374.374,0,0,1,529.264,713.154Z" transform="translate(-528.89 -703.584)" fill="#99ba49"/>
      </g>
      <g id="Group_22119" data-name="Group 22119" transform="translate(27.359 32.996)">
        <path id="Path_18142" data-name="Path 18142" d="M538.222,724.9a.375.375,0,0,1-.265-.64l5.036-5.033a.375.375,0,0,1,.53.53l-5.036,5.033A.374.374,0,0,1,538.222,724.9Z" transform="translate(-537.848 -719.115)" fill="#99ba49"/>
      </g>
      <g id="Group_22120" data-name="Group 22120" transform="translate(6.699 31.046)">
        <path id="Path_18143" data-name="Path 18143" d="M502.374,728.96a.374.374,0,0,1-.375-.375V716.106a.375.375,0,1,1,.75,0v12.479A.374.374,0,0,1,502.374,728.96Z" transform="translate(-501.999 -715.731)" fill="#99ba49"/>
      </g>
      <g id="Group_22121" data-name="Group 22121" transform="translate(14.004 31.046)">
        <path id="Path_18144" data-name="Path 18144" d="M515.049,728.96a.374.374,0,0,1-.375-.375V716.106a.375.375,0,1,1,.75,0v12.479A.374.374,0,0,1,515.049,728.96Z" transform="translate(-514.674 -715.731)" fill="#99ba49"/>
      </g>
      <g id="Group_22122" data-name="Group 22122" transform="translate(21.307 31.982)">
        <path id="Path_18145" data-name="Path 18145" d="M527.721,729.649a.374.374,0,0,1-.375-.375V717.731a.375.375,0,1,1,.749,0v11.543A.374.374,0,0,1,527.721,729.649Z" transform="translate(-527.346 -717.356)" fill="#99ba49"/>
      </g>
      <g id="Group_22123" data-name="Group 22123" transform="translate(28.61 39.282)">
        <path id="Path_18146" data-name="Path 18146" d="M540.394,735.015a.374.374,0,0,1-.375-.375V730.4a.375.375,0,1,1,.749,0v4.243A.374.374,0,0,1,540.394,735.015Z" transform="translate(-540.019 -730.022)" fill="#99ba49"/>
      </g>
    </g>
  </g>
</svg>
