<svg xmlns="http://www.w3.org/2000/svg" width="115.792" height="75.446" viewBox="0 0 115.792 75.446">
  <g id="Group_22241" data-name="Group 22241" transform="translate(-45.559 -45.885)">
    <path id="Path_1" data-name="Path 1" d="M60.929,80.171q-7.266,0-14.532-.006c-.28,0-.686.152-.814-.163s.274-.482.467-.689c3.191-3.408,6.37-6.829,9.59-10.209,3.429-3.6,6.881-7.177,10.254-10.83,1.9-2.053,3.885-4.018,5.811-6.044,1.394-1.467,2.737-2.983,4.136-4.445a3.456,3.456,0,0,1,2.775-1.273c3.256.108,6.517.034,9.777.037,1.178,0,1.184.008,1.184,1.214q0,8.694,0,17.388a2.371,2.371,0,0,1-.786,1.865c-1.717,1.691-3.295,3.522-4.942,5.285-.63.675-1.3,1.315-1.95,1.97-1.619,1.628-3.194,3.3-4.682,5.048a2.31,2.31,0,0,1-1.939.869C70.5,80.152,65.713,80.171,60.929,80.171Z" transform="translate(0 -0.48)" fill="#8e8a25"/>
    <path id="Path_2" data-name="Path 2" d="M381.6,80.313q-7.223,0-14.447.005a1.768,1.768,0,0,1-1.459-.5c-2.8-3.034-5.654-6.027-8.435-9.082-1.245-1.368-2.659-2.574-3.807-4.035a1.826,1.826,0,0,1-.473-1.2c.01-5.349,0-10.7.015-16.048,0-.711.138-1.421.178-2.133.026-.464.265-.623.69-.622q5.608,0,11.216,0c.792,0,1.087.692,1.519,1.139,2.112,2.18,4.174,4.408,6.264,6.609q3.227,3.4,6.472,6.781c1.9,1.977,3.742,4,5.652,5.968,1.236,1.271,2.455,2.581,3.638,3.916,1.219,1.376,2.578,2.627,3.847,3.961,1.416,1.489,2.8,3.006,4.191,4.52.148.162.456.31.314.578-.126.238-.432.14-.66.14q-6.1.008-12.2,0Z" transform="translate(-235.665 -0.621)" fill="#8e8a25"/>
    <path id="Path_3" data-name="Path 3" d="M269.8,62.825q0,7.8,0,15.6c0,1.127-.125,1.31-1.218,1.258-6.185-.3-12.373-.141-18.56-.146-1.134,0-.767-.76-.826-1.269-.1-.878-.091-1.769-.13-2.654-.092-2.091.144-4.172.175-6.259.052-3.463-.289-6.919-.179-10.384.083-2.612.15-5.224.173-7.837.011-1.209-.085-2.421-.161-3.629s.274-1.621,1.49-1.622q8.93,0,17.86,0c1.369,0,1.377.01,1.378,1.427Q269.806,55.069,269.8,62.825Z" transform="translate(-155.986)" fill="#5e892e"/>
    <path id="Path_4" data-name="Path 4" d="M239.2,277.378q0-4.662,0-9.324a8.8,8.8,0,0,0-.14-2.136c-.173-.7.048-1.172.911-1.073a5.5,5.5,0,0,0,1.076,0c.575-.048.963.086,1.074.744.1.6.4.524.791.169,2.527-2.32,5.056-1.433,6.844.72,1.808,2.177,2.105,4.669,1.982,7.34a15.122,15.122,0,0,1-.682,3.657,7.989,7.989,0,0,1-2.5,3.612c-1.31,1.2-2.923,1.206-4.556,1.078-.323-.025-.478-.354-.747-.468s-.5-.532-.868-.305c-.307.188-.178.545-.179.829-.006,1.728.014,3.453.151,5.182.113,1.419.024,1.435-1.377,1.425-2-.014-1.765.22-1.772-1.769C239.2,283.833,239.2,280.606,239.2,277.378Zm3.176-3.761c0,1.553,0,3.105,0,4.658a1.556,1.556,0,0,0,.288,1,2.819,2.819,0,0,0,4.166.214,6.235,6.235,0,0,0,1.661-3.586,14.822,14.822,0,0,0,.044-4.884,7.364,7.364,0,0,0-1.283-3.463,2.929,2.929,0,0,0-2.69-.963c-1.022.349-2.3,1.576-2.213,2.638C242.466,270.685,242.379,272.155,242.38,273.618Z" transform="translate(-148.292 -167.501)" fill="#f8f9fb"/>
    <path id="Path_5" data-name="Path 5" d="M174.411,258.931a9.343,9.343,0,0,1-4.986-1.348c-.642-.335-.538-.87-.524-1.389.013-.5-.244-1.208.151-1.437.514-.3.795.455,1.2.724a6.859,6.859,0,0,0,6.242,1.2,4.493,4.493,0,0,0,2.476-4.815,6.122,6.122,0,0,0-3.571-4.066,30.8,30.8,0,0,1-4.607-2.893,4.42,4.42,0,0,1-1.71-3.482,6.849,6.849,0,0,1,5.481-7.41,9.268,9.268,0,0,1,5.612.673.958.958,0,0,1,.688,1.168c-.061.543.3,1.292-.227,1.572-.37.2-.819-.456-1.244-.711-1.748-1.049-3.544-1.537-5.485-.508a4.117,4.117,0,0,0-1.763,3.994c.375,2.129,2.018,3,3.636,3.87a35.614,35.614,0,0,1,4.1,2.528,5.363,5.363,0,0,1,2.2,3.637,6.9,6.9,0,0,1-2.686,7.161A7.412,7.412,0,0,1,174.411,258.931Z" transform="translate(-94.497 -144.064)" fill="#f8f9fb"/>
    <path id="Path_6" data-name="Path 6" d="M378.124,275.867c0,2-.016,4,.008,6,.007.62-.149.94-.849.918-2.746-.085-2.546.457-2.26-2.465.317-3.253.235-6.489.268-9.733.015-1.512-.137-3.028-.266-4.538-.039-.462.119-.6.52-.606.448-.005.9.028,1.344-.015.867-.085,1.375.13,1.249,1.15-.086.691.244.682.723.331a7.282,7.282,0,0,1,3.17-1.711,4.856,4.856,0,0,1,5.27,3.4,22.918,22.918,0,0,1,.339,4.977q0,3.54,0,7.079a6.976,6.976,0,0,0,.017.806c.155,1.318.16,1.33-1.141,1.318-2.13-.018-1.859.255-1.868-1.848-.014-3.315,0-6.631,0-9.946a7.5,7.5,0,0,0-.148-1.595,2.4,2.4,0,0,0-2.542-2.2,3.779,3.779,0,0,0-3.636,1.824,1.717,1.717,0,0,0-.193.942Q378.122,272.91,378.124,275.867Z" transform="translate(-252.44 -168.088)" fill="#f8f9fb"/>
    <path id="Path_7" data-name="Path 7" d="M316.7,274a41.349,41.349,0,0,0,.343,7.4c.115.593-.072,1-.8.938a4.318,4.318,0,0,0-.985,0c-.838.121-1.3-.19-1.364-1.057-.048-.688-.413-.675-.817-.3a5.915,5.915,0,0,1-3.159,1.491,4.974,4.974,0,0,1-4.372-1.786c-1.2-1.5-1.077-3.006-.751-4.623a4.221,4.221,0,0,1,1.885-2.615,25.738,25.738,0,0,1,6-2.917c1.3-.477,1.577-1.382.779-2.559a4.6,4.6,0,0,0-3.623-1.785,5.5,5.5,0,0,0-3.141.856c-.65.324-.922.239-.9-.576.033-1.515.018-1.416,1.5-1.686a14.824,14.824,0,0,1,5.126.03,4.867,4.867,0,0,1,4.291,4.7C316.675,271.007,316.7,272.5,316.7,274Zm-2.994,1.516c0-1.015,0-2.03,0-3.045,0-.378.006-.654-.539-.424a25.276,25.276,0,0,0-3.816,1.947,3.647,3.647,0,0,0-1.942,3.481c.281,2.7,2.239,3.318,4.477,2.59,1.706-.555,1.819-.836,1.819-2.579Q313.7,276.5,313.7,275.511Z" transform="translate(-198.556 -167.64)" fill="#f8f9fb"/>
  </g>
</svg>
