<svg xmlns="http://www.w3.org/2000/svg" width="20.273" height="16.5" viewBox="0 0 20.273 16.5">
  <path id="Path_4537" data-name="Path 4537" d="M1480.974,71.987a8.589,8.589,0,0,1-1.308,1.522,7.756,7.756,0,0,1-.7.576.122.122,0,0,0-.061.125,7.99,7.99,0,0,1-.007,1.13,11.818,11.818,0,0,1-.292,1.977,12.439,12.439,0,0,1-1.877,4.239,12.073,12.073,0,0,1-1.16,1.429,11.159,11.159,0,0,1-3.13,2.322,11.283,11.283,0,0,1-3.1,1.018,12.1,12.1,0,0,1-1.579.178c-.107.005-.214.011-.319.018-.285,0-.57.005-.855-.007a11.77,11.77,0,0,1-5.8-1.795c-.027-.018-.052-.037-.078-.057l0,0a1.19,1.19,0,0,1,.239.012,8.442,8.442,0,0,0,3.164-.33,8.32,8.32,0,0,0,2.668-1.371c.013-.009.023-.02.034-.029s0-.005.005-.018c-.112-.021-.228-.014-.34-.027a4.07,4.07,0,0,1-1.75-.6,4.12,4.12,0,0,1-1.727-2.141.3.3,0,0,1-.03-.111l.005-.005a6.338,6.338,0,0,0,.841.061,4.279,4.279,0,0,0,1.005-.141,4.186,4.186,0,0,1-3.328-4.141,4.429,4.429,0,0,0,.9.371,3.964,3.964,0,0,0,.966.15c-.107-.082-.2-.151-.291-.225a4.181,4.181,0,0,1-1.027-5.251c.046-.087.05-.087.111-.014a11.859,11.859,0,0,0,6.4,3.982,10.868,10.868,0,0,0,1.587.26c.152.012.3.021.453.036.064.005.078-.009.066-.078a4.11,4.11,0,0,1,.645-3.224,3.993,3.993,0,0,1,2.781-1.752,4.067,4.067,0,0,1,3.62,1.187.153.153,0,0,0,.16.057,8.378,8.378,0,0,0,2.465-.943c.02-.012.043-.02.064-.03l.013.012a3.465,3.465,0,0,1-.4.879,4.126,4.126,0,0,1-1.289,1.319.327.327,0,0,0-.068.055,2.142,2.142,0,0,0,.428-.053,8.385,8.385,0,0,0,1.825-.549A.1.1,0,0,1,1480.974,71.987Z" transform="translate(-1460.7 -70.021)" fill="#0dbeff"/>
</svg>
