<svg xmlns="http://www.w3.org/2000/svg" width="20.179" height="19.314" viewBox="0 0 20.179 19.314">
  <path id="Path_17210" data-name="Path 17210" d="M-433.071,1030.831v-1.339c.05-.016.038-.062.044-.1.044-.245.074-.494.133-.735a7.922,7.922,0,0,1,3.212-4.613,10.907,10.907,0,0,1,5.311-2,11.79,11.79,0,0,1,5.921.8,9.09,9.09,0,0,1,4.5,3.721,6.664,6.664,0,0,1,.4,6.473,9.467,9.467,0,0,1-1.986,2.72,28.912,28.912,0,0,1-4.313,3.481,24.738,24.738,0,0,1-3.038,1.851,1.507,1.507,0,0,1-.618.183c-.256.008-.385-.1-.387-.359a3.012,3.012,0,0,1,.049-.449,6.857,6.857,0,0,0,.145-1.366.651.651,0,0,0-.384-.592,2.735,2.735,0,0,0-.809-.231,10.68,10.68,0,0,1-5.32-2.328,7.659,7.659,0,0,1-2.766-4.586A1.856,1.856,0,0,0-433.071,1030.831Zm10.051-.907c.06.079.108.14.154.2q.912,1.246,1.824,2.491a.541.541,0,0,0,.647.244.552.552,0,0,0,.358-.574q0-1.938,0-3.876a.546.546,0,0,0-.522-.614c-.324-.005-.538.237-.538.614q0,1.083,0,2.164v.2a.35.35,0,0,1-.149-.154q-.9-1.227-1.806-2.456c-.24-.327-.429-.423-.677-.343-.275.088-.373.27-.373.7q0,1.741,0,3.483c0,.144,0,.289.01.432a.505.505,0,0,0,.451.448.514.514,0,0,0,.563-.361,1.133,1.133,0,0,0,.027-.292c0-.688,0-1.377,0-2.066A.443.443,0,0,1-423.02,1029.925Zm5.22,2.964h1a.525.525,0,0,0,.523-.528.536.536,0,0,0-.582-.533q-.63-.008-1.26,0c-.118,0-.163-.03-.158-.154.009-.209.011-.42,0-.63-.008-.146.051-.174.182-.171.4.008.8,0,1.2,0a.752.752,0,0,0,.253-.026.526.526,0,0,0,.358-.567.517.517,0,0,0-.52-.469c-.44-.008-.879-.007-1.319,0-.122,0-.16-.034-.155-.155a6.232,6.232,0,0,0,0-.63c-.009-.146.049-.173.18-.17.42.008.84.006,1.26,0a.531.531,0,0,0,.561-.533.53.53,0,0,0-.563-.529q-.965,0-1.929,0a.524.524,0,0,0-.563.567q0,1.978,0,3.956a.52.52,0,0,0,.562.566C-418.444,1032.892-418.122,1032.889-417.8,1032.889Zm-11.67-2.53v.728c0,.406,0,.813,0,1.219a.518.518,0,0,0,.511.578q1.023.013,2.046,0a.506.506,0,0,0,.5-.5.533.533,0,0,0-.58-.553c-.413-.006-.826-.008-1.239,0-.151,0-.187-.045-.186-.19.007-.682,0-1.364,0-2.045,0-.433.005-.866-.006-1.3a.509.509,0,0,0-.49-.5.521.521,0,0,0-.548.456,1.647,1.647,0,0,0-.013.235Q-429.472,1029.425-429.471,1030.359Zm4.605-.006h0c0-.676.005-1.352,0-2.028a.517.517,0,0,0-.443-.523.532.532,0,0,0-.574.35.952.952,0,0,0-.03.312q0,1.88,0,3.761a1.633,1.633,0,0,0,.01.216.512.512,0,0,0,.5.446.52.52,0,0,0,.544-.565C-424.862,1031.666-424.866,1031.01-424.866,1030.354Z" transform="translate(433.071 -1021.959)" fill="#3acd00"/>
</svg>
